<svg width="51" height="51" viewBox="0 0 51 51" fill="none" xmlns="http://www.w3.org/2000/svg">
<g clip-path="url(#clip0_2497_51360)">
<path d="M6.50467 7.62354C5.03024 7.62354 3.61619 8.20925 2.57361 9.25183C1.53103 10.2944 0.945313 11.7085 0.945312 13.1829L0.945313 38.2C0.945313 39.6745 1.53103 41.0885 2.57361 42.1311C3.61619 43.1737 5.03024 43.7594 6.50467 43.7594H45.4202C46.8946 43.7594 48.3087 43.1737 49.3513 42.1311C50.3938 41.0885 50.9796 39.6745 50.9796 38.2V13.1829C50.9796 13.1829 50.9796 7.62354 45.4202 7.62354H6.50467Z" fill="#FFAC33"/>
<path d="M0.945312 14.5737H50.9796V21.5229H0.945312V14.5737Z" fill="#EEEEEE"/>
<path d="M6.50391 27.082H45.4194V35.4211H6.50391V27.082Z" fill="#F4F7F9"/>
<path d="M27.3519 34.0306C24.985 34.0306 24.0983 32.3488 23.9204 31.5274C23.1601 31.5844 22.4194 31.9486 21.4117 32.5893C20.3485 33.2647 19.1435 34.0306 17.623 34.0306C15.9594 34.0306 14.949 33.0924 14.8433 31.2509C14.8392 31.173 14.8962 30.9896 14.8725 30.9896C12.2902 30.9896 10.4223 33.4371 10.4042 33.4621C10.2966 33.6096 10.161 33.7344 10.005 33.8292C9.84907 33.9241 9.67591 33.9873 9.49549 34.015C9.31507 34.0428 9.13094 34.0347 8.95368 33.991C8.77643 33.9474 8.60953 33.8692 8.46259 33.7609C8.31536 33.653 8.19085 33.5171 8.09615 33.361C8.00145 33.205 7.93843 33.0318 7.91068 32.8513C7.88293 32.6709 7.891 32.4868 7.93443 32.3094C7.97785 32.1321 8.05578 31.9651 8.16377 31.8179C8.27079 31.672 10.8267 28.4712 14.8433 28.4712C17.5355 28.4712 17.6897 30.3822 17.7314 31.0952L17.7412 31.2467C18.4166 31.1994 19.1185 30.7547 19.9232 30.2418C21.2588 29.394 22.9155 28.3364 25.1351 28.9048C26.3457 29.2148 26.5347 30.3377 26.607 30.7616C26.625 30.8673 26.6514 31.0257 26.6751 31.0758C26.6848 31.0758 26.878 31.2022 27.477 31.2564C28.6167 31.3607 29.8689 30.8687 31.1948 30.3489C32.568 29.8096 33.9884 29.2537 35.5186 29.2537C40.2288 29.2537 42.144 31.5261 42.3469 31.7846C42.4636 31.9279 42.5506 32.093 42.6027 32.2703C42.6548 32.4477 42.671 32.6336 42.6504 32.8173C42.6298 33.0009 42.5728 33.1786 42.4827 33.34C42.3925 33.5013 42.2711 33.6431 42.1256 33.757C41.98 33.8709 41.8132 33.9545 41.6348 34.0032C41.4565 34.0518 41.2703 34.0643 41.0871 34.0401C40.9039 34.0159 40.7273 33.9554 40.5678 33.8621C40.4082 33.7688 40.2689 33.6446 40.1579 33.4969C40.1245 33.4593 38.8653 32.032 35.52 32.032C34.5151 32.032 33.3963 32.4698 32.2108 32.934C30.8084 33.4843 28.8279 34.0306 27.3519 34.0306Z" fill="#8899A6"/>
</g>
<defs>
<clipPath id="clip0_2497_51360">
<rect width="50.0342" height="50.0342" fill="white" transform="translate(0.945312 0.674805)"/>
</clipPath>
</defs>
</svg>
