<svg width="379" height="282" viewBox="0 0 379 282" fill="none" xmlns="http://www.w3.org/2000/svg">
<path d="M378.463 247.817H0V248.006H378.463V247.817Z" fill="#EBEBEB"/>
<path d="M340.54 259.996H315.471V260.186H340.54V259.996Z" fill="#EBEBEB"/>
<path d="M250.709 262.055H244.131V262.244H250.709V262.055Z" fill="#EBEBEB"/>
<path d="M314.715 252.972H300.189V253.161H314.715V252.972Z" fill="#EBEBEB"/>
<path d="M72.4006 254.244H39.709V254.433H72.4006V254.244Z" fill="#EBEBEB"/>
<path d="M83.9359 254.244H79.1445V254.433H83.9359V254.244Z" fill="#EBEBEB"/>
<path d="M170.422 257.438H99.5137V257.627H170.422V257.438Z" fill="#EBEBEB"/>
<path d="M179.391 214.058H33.2363C32.0914 214.056 30.994 213.6 30.1851 212.79C29.3762 211.98 28.9219 210.881 28.9219 209.736V4.2842C28.9318 3.1458 29.3906 2.05731 30.1984 1.25515C31.0062 0.452988 32.0979 0.00195013 33.2363 0H179.391C180.537 0 181.637 0.455357 182.447 1.2659C183.258 2.07644 183.713 3.17576 183.713 4.32204V209.736C183.713 210.883 183.258 211.982 182.447 212.793C181.637 213.603 180.537 214.058 179.391 214.058ZM33.2363 0.151386C32.1416 0.153391 31.0923 0.589694 30.3189 1.36453C29.5455 2.13936 29.1111 3.18942 29.1111 4.2842V209.736C29.1111 210.831 29.5455 211.881 30.3189 212.656C31.0923 213.431 32.1416 213.867 33.2363 213.869H179.391C180.486 213.867 181.537 213.431 182.311 212.656C183.086 211.882 183.522 210.832 183.524 209.736V4.2842C183.522 3.18872 183.086 2.13869 182.311 1.36407C181.537 0.589448 180.486 0.153386 179.391 0.151386H33.2363Z" fill="#EBEBEB"/>
<path d="M343.121 214.058H196.959C195.813 214.056 194.715 213.6 193.905 212.79C193.095 211.98 192.639 210.882 192.637 209.736V4.2842C192.649 3.14511 193.109 2.05662 193.918 1.25467C194.727 0.452723 195.82 0.00192886 196.959 0H343.121C344.258 0.00393941 345.348 0.455857 346.154 1.2578C346.96 2.05975 347.418 3.14711 347.428 4.2842V209.736C347.428 210.88 346.975 211.977 346.167 212.787C345.36 213.597 344.265 214.054 343.121 214.058ZM196.959 0.151386C195.863 0.153386 194.813 0.589448 194.039 1.36407C193.264 2.13869 192.828 3.18872 192.826 4.2842V209.736C192.828 210.832 193.264 211.882 194.039 212.656C194.813 213.431 195.863 213.867 196.959 213.869H343.121C344.216 213.867 345.267 213.431 346.041 212.656C346.816 211.882 347.252 210.832 347.254 209.736V4.2842C347.252 3.18872 346.816 2.13869 346.041 1.36407C345.267 0.589448 344.216 0.153386 343.121 0.151386H196.959Z" fill="#EBEBEB"/>
<path d="M338.526 63.2866H239.793V68.358H338.526V63.2866Z" fill="#E0E0E0"/>
<path d="M248.688 44.5906H244.336V63.2866H248.688V44.5906Z" fill="#EBEBEB"/>
<path d="M269.723 44.5906H265.371V63.2866H269.723V44.5906Z" fill="#EBEBEB"/>
<path d="M293.604 44.111L289.314 44.8503L292.49 63.2747L296.779 62.5354L293.604 44.111Z" fill="#EBEBEB"/>
<path d="M254.077 47.0581H249.725V63.2941H254.077V47.0581Z" fill="#EBEBEB"/>
<path d="M264.077 47.0581H259.725V63.2941H264.077V47.0581Z" fill="#EBEBEB"/>
<path d="M289.311 47.0581H284.959V63.2941H289.311V47.0581Z" fill="#EBEBEB"/>
<path d="M275.434 46.4852L271.186 47.4294L274.708 63.2788L278.957 62.3345L275.434 46.4852Z" fill="#EBEBEB"/>
<path d="M257.838 43.6594H255.666V63.2865H257.838V43.6594Z" fill="#EBEBEB"/>
<path d="M283.711 43.6594H281.539V63.2865H283.711V43.6594Z" fill="#EBEBEB"/>
<path d="M329.051 48.4885H307.857V63.1199H329.051V48.4885Z" fill="#EBEBEB"/>
<path d="M239.794 106.227L338.527 106.227V101.155L239.794 101.155V106.227Z" fill="#E0E0E0"/>
<path d="M329.626 101.163H333.979V82.467H329.626V101.163Z" fill="#EBEBEB"/>
<path d="M308.599 101.163H312.951V82.467H308.599V101.163Z" fill="#EBEBEB"/>
<path d="M281.549 100.42L285.838 101.159L289.014 82.7348L284.725 81.9955L281.549 100.42Z" fill="#EBEBEB"/>
<path d="M324.236 101.156H328.588V84.9195H324.236V101.156Z" fill="#EBEBEB"/>
<path d="M314.245 101.156H318.598V84.9195H314.245V101.156Z" fill="#EBEBEB"/>
<path d="M289.009 101.156H293.361V84.9195H289.009V101.156Z" fill="#EBEBEB"/>
<path d="M299.374 100.203L303.623 101.147L307.145 85.2979L302.897 84.3536L299.374 100.203Z" fill="#EBEBEB"/>
<path d="M320.482 101.156H322.654V81.5285H320.482V101.156Z" fill="#EBEBEB"/>
<path d="M294.611 101.156H296.783V81.5285H294.611V101.156Z" fill="#EBEBEB"/>
<path d="M249.263 100.997H270.457V86.3652H249.263V100.997Z" fill="#EBEBEB"/>
<path d="M40.1172 159.711V248.271H44.6587V168.794H124.893V248.271H130.191V159.711H40.1172Z" fill="#E0E0E0"/>
<path d="M90.0742 159.711V248.271H94.6158V168.794H174.85V248.271H180.148V159.711H90.0742Z" fill="#F5F5F5"/>
<path d="M118.746 126.709C117.732 125.044 116.066 126.497 116.066 126.497C116.301 123.296 113.364 121.116 113.364 121.116C113.364 121.116 116.778 121.116 117.255 117.853C117.732 114.591 116.066 116.112 114.5 116.09C112.933 116.067 111.298 120.631 113.364 123.205C115.431 125.778 114.878 130.168 110.109 134.385C108.968 135.451 108.112 136.786 107.619 138.268C107.982 134.392 108.187 128.927 107.044 125.286C105.106 119.087 108.8 117.422 109.867 114.326C110.934 111.23 107.044 108.604 107.044 108.604C107.044 108.604 110.707 106.938 108.913 105.031C107.12 103.124 103.441 103.381 103.441 105.879C103.441 108.377 105.939 109.323 105.939 109.323C105.939 109.323 108.8 112.297 108.8 113.864C108.8 115.431 105.939 118.746 105.939 118.746C105.939 118.746 107.248 115.893 104.629 115.772C102.01 115.651 101.17 119.102 102.245 120.654C103.32 122.206 105.106 120.889 105.106 120.889C105.216 122.696 105.489 124.49 105.924 126.248C106.189 127.141 106.067 130.638 105.84 134.271C105.342 132.959 104.547 131.78 103.517 130.827C98.7555 126.611 98.2181 122.221 100.262 119.647C102.305 117.074 100.693 112.509 99.1264 112.532C97.5596 112.555 95.8943 111.018 96.3712 114.296C96.848 117.573 100.262 117.558 100.262 117.558C100.262 117.558 97.3249 119.738 97.5671 122.94C97.5671 122.94 95.8943 121.487 94.88 123.152C93.0786 126.134 97.2644 127.981 97.9683 126.513C97.9683 126.513 106.855 132.803 104.712 141.855L105.212 142.612C105.144 143.369 105.106 143.786 105.106 143.786L105.802 143.49L106.559 144.656C106.532 145.971 106.601 147.287 106.764 148.592L108.883 145.451C106.741 136.368 115.627 130.108 115.627 130.108C116.362 131.538 120.555 129.692 118.746 126.709Z" fill="#E0E0E0"/>
<path d="M113.365 159.711L110.496 143.294L111.306 138.517H102.276L103.086 143.294L100.225 159.711H113.365Z" fill="#EBEBEB"/>
<path d="M189.231 282C270.284 282 335.991 278.164 335.991 273.432C335.991 268.699 270.284 264.863 189.231 264.863C108.177 264.863 42.4707 268.699 42.4707 273.432C42.4707 278.164 108.177 282 189.231 282Z" fill="#F5F5F5"/>
<path d="M227.636 39.5798L204.318 26.988L187.875 57.4383L211.192 70.0301L227.636 39.5798Z" fill="#CC775D"/>
<path opacity="0.6" d="M227.636 39.5798L204.318 26.988L187.875 57.4383L211.192 70.0301L227.636 39.5798Z" fill="white"/>
<path d="M221.83 42.0164L205.473 33.1831L204.584 34.8282L220.942 43.6615L221.83 42.0164Z" fill="#CC775D"/>
<path d="M220.273 44.899L203.916 36.0657L203.028 37.7107L219.385 46.5441L220.273 44.899Z" fill="#CC775D"/>
<path d="M218.717 47.7789L202.359 38.9456L201.471 40.5906L217.828 49.4239L218.717 47.7789Z" fill="#CC775D"/>
<path d="M217.154 50.658L200.797 41.8247L199.909 43.4698L216.266 52.3031L217.154 50.658Z" fill="#CC775D"/>
<path d="M215.603 53.534L199.246 44.7007L198.358 46.3457L214.715 55.1791L215.603 53.534Z" fill="#CC775D"/>
<path d="M214.051 56.4205L197.693 47.5872L196.805 49.2322L213.162 58.0655L214.051 56.4205Z" fill="#CC775D"/>
<path d="M212.498 59.2965L196.141 50.4631L195.252 52.1082L211.61 60.9415L212.498 59.2965Z" fill="#CC775D"/>
<path d="M205.166 59.0641L194.576 53.3455L193.688 54.9905L204.277 60.7092L205.166 59.0641Z" fill="#CC775D"/>
<path d="M165.684 39.8067C162.385 39.4691 159.261 38.1609 156.705 36.0476C154.15 33.9342 152.279 31.1105 151.329 27.9337C150.378 24.7569 150.391 21.3695 151.366 18.2C152.34 15.0305 154.233 12.2212 156.804 10.1273C159.375 8.03349 162.51 6.74913 165.811 6.43667C169.112 6.12421 172.432 6.79769 175.35 8.37195C178.269 9.9462 180.655 12.3505 182.207 15.2809C183.759 18.2112 184.407 21.536 184.07 24.8348C183.611 29.2558 181.418 33.3147 177.972 36.1213C174.525 38.9279 170.106 40.2533 165.684 39.8067Z" fill="#CC775D"/>
<path opacity="0.3" d="M168.57 38.3624C176.994 37.7142 183.297 30.3601 182.649 21.9364C182.001 13.5128 174.647 7.20948 166.223 7.85764C157.799 8.50581 151.496 15.86 152.144 24.2836C152.792 32.7073 160.147 39.0106 168.57 38.3624Z" fill="white"/>
<path d="M172.58 18.1662C170.817 16.9173 168.357 12.6482 168.357 12.6255L166.767 28.097C166.805 27.7489 165.427 27.3931 164.496 27.3401C162.279 27.1055 160.409 28.15 160.258 29.6109C160.106 31.0718 161.771 32.525 164.042 32.7521C166.313 32.9792 168.107 31.9346 168.266 30.4359C168.266 30.2089 168.107 29.9666 168.13 29.7623L169.348 17.8407C170.259 18.8891 171.378 19.7371 172.633 20.331C174.306 21.0879 174.904 23.4117 174.904 23.4117C174.986 22.4128 174.816 21.4093 174.41 20.4929C174.005 19.5765 173.375 18.7766 172.58 18.1662Z" fill="white"/>
<path opacity="0.5" d="M170.231 28.4832C176.147 25.4156 178.881 18.9547 176.339 14.0524C173.797 9.15008 166.941 7.66272 161.025 10.7303C155.11 13.7979 152.375 20.2588 154.918 25.1611C157.46 30.0634 164.316 31.5508 170.231 28.4832Z" fill="white"/>
<path d="M134.573 1.36289L98.5488 4.29297L100.743 31.264L136.767 28.3339L134.573 1.36289Z" fill="#CC775D"/>
<path d="M132.972 3.25544L100.531 5.89404L102.434 29.2815L134.874 26.6429L132.972 3.25544Z" fill="#CC775D"/>
<path opacity="0.5" d="M132.972 3.25544L100.531 5.89404L102.434 29.2815L134.874 26.6429L132.972 3.25544Z" fill="white"/>
<path d="M134.612 23.4648L134.869 26.6439L102.427 29.2855L101.504 17.9165L107.718 11.5129L118.444 20.3917L123.394 16.1302L134.612 23.4648Z" fill="#CC775D"/>
<path opacity="0.3" d="M134.612 23.4648L134.869 26.6439L102.427 29.2855L101.504 17.9165L107.718 11.5129L118.444 20.3917L123.394 16.1302L134.612 23.4648Z" fill="white"/>
<path d="M128.065 9.84C128.107 10.3562 127.995 10.8732 127.743 11.3256C127.491 11.778 127.11 12.1455 126.649 12.3817C126.188 12.6178 125.668 12.712 125.153 12.6524C124.639 12.5927 124.154 12.3819 123.759 12.0465C123.364 11.7111 123.078 11.2662 122.936 10.7681C122.794 10.27 122.803 9.74108 122.962 9.24811C123.121 8.75514 123.422 8.32031 123.828 7.99857C124.234 7.67684 124.726 7.48265 125.242 7.44055C125.585 7.41258 125.93 7.45247 126.258 7.55794C126.585 7.66341 126.889 7.83239 127.151 8.05522C127.413 8.27806 127.629 8.55038 127.786 8.85662C127.943 9.16286 128.038 9.49702 128.065 9.84Z" fill="#CC775D"/>
<path opacity="0.3" d="M128.065 9.84C128.107 10.3562 127.995 10.8732 127.743 11.3256C127.491 11.778 127.11 12.1455 126.649 12.3817C126.188 12.6178 125.668 12.712 125.153 12.6524C124.639 12.5927 124.154 12.3819 123.759 12.0465C123.364 11.7111 123.078 11.2662 122.936 10.7681C122.794 10.27 122.803 9.74108 122.962 9.24811C123.121 8.75514 123.422 8.32031 123.828 7.99857C124.234 7.67684 124.726 7.48265 125.242 7.44055C125.585 7.41258 125.93 7.45247 126.258 7.55794C126.585 7.66341 126.889 7.83239 127.151 8.05522C127.413 8.27806 127.629 8.55038 127.786 8.85662C127.943 9.16286 128.038 9.49702 128.065 9.84Z" fill="white"/>
<path d="M65.3918 33.2062L63.999 32.3509C63.7521 32.1983 63.4728 32.1057 63.1835 32.0807C62.8943 32.0558 62.6033 32.099 62.3338 32.2071L56.1497 34.8185C55.8898 34.9241 55.6617 35.0954 55.4879 35.3157C55.3141 35.536 55.2005 35.7976 55.1582 36.075L54.9311 37.5888C54.8926 37.8656 54.7812 38.1271 54.6083 38.3466C54.4354 38.5661 54.2072 38.7356 53.9471 38.8377L50.2533 40.3516C50.0423 40.4373 49.8517 40.5663 49.6937 40.7303C49.5357 40.8943 49.4139 41.0896 49.3361 41.3036C49.2583 41.5177 49.2264 41.7456 49.2422 41.9728C49.2581 42.1999 49.3215 42.4212 49.4282 42.6224L59.2683 62.7869C59.4763 63.2047 59.8337 63.5292 60.2697 63.6961C60.7057 63.8629 61.1884 63.8599 61.6223 63.6876L90.885 51.4708C91.0974 51.3869 91.2897 51.2589 91.4491 51.0954C91.6086 50.9319 91.7317 50.7365 91.8103 50.5221C91.889 50.3076 91.9213 50.079 91.9054 49.8511C91.8894 49.6233 91.8254 49.4014 91.7176 49.2001L81.8776 29.0431C81.6709 28.6239 81.314 28.2977 80.8779 28.1295C80.4418 27.9612 79.9583 27.9631 79.5236 28.1348L67.057 33.35C66.7876 33.4581 66.4965 33.5014 66.2073 33.4764C65.9181 33.4514 65.6387 33.3589 65.3918 33.2062Z" fill="#CC775D"/>
<path d="M83.2621 28.8843L56.4594 40.1171C55.9127 40.3535 55.472 40.7825 55.2208 41.3225C54.9696 41.8625 54.9255 42.476 55.0969 43.0464L60.9631 61.6138C61.0457 61.8799 61.1839 62.1254 61.3685 62.3341C61.5531 62.5428 61.7799 62.7099 62.0339 62.8244C62.2879 62.9389 62.5634 62.9981 62.842 62.9982C63.1206 62.9983 63.3961 62.9392 63.6502 62.8249L90.4605 51.6072C91.005 51.3682 91.4437 50.9389 91.6945 50.3997C91.9452 49.8605 91.9909 49.2484 91.8229 48.6779L85.9492 30.1106C85.8693 29.8424 85.7329 29.5945 85.5492 29.3834C85.3655 29.1723 85.1388 29.003 84.8843 28.8869C84.6297 28.7707 84.3533 28.7104 84.0735 28.71C83.7937 28.7095 83.517 28.769 83.2621 28.8843Z" fill="#CC775D"/>
<path opacity="0.5" d="M83.2621 28.8843L56.4594 40.1171C55.9127 40.3535 55.472 40.7825 55.2208 41.3225C54.9696 41.8625 54.9255 42.476 55.0969 43.0464L60.9631 61.6138C61.0457 61.8799 61.1839 62.1254 61.3685 62.3341C61.5531 62.5428 61.7799 62.7099 62.0339 62.8244C62.2879 62.9389 62.5634 62.9981 62.842 62.9982C63.1206 62.9983 63.3961 62.9392 63.6502 62.8249L90.4605 51.6072C91.005 51.3682 91.4437 50.9389 91.6945 50.3997C91.9452 49.8605 91.9909 49.2484 91.8229 48.6779L85.9492 30.1106C85.8693 29.8424 85.7329 29.5945 85.5492 29.3834C85.3655 29.1723 85.1388 29.003 84.8843 28.8869C84.6297 28.7707 84.3533 28.7104 84.0735 28.71C83.7937 28.7095 83.517 28.769 83.2621 28.8843Z" fill="white"/>
<path d="M180.512 73.4218C180.844 71.8592 181.012 70.2659 181.011 68.6683C181.011 65.7042 180.427 62.7691 179.293 60.0306C178.159 57.2921 176.496 54.8038 174.4 52.7078C172.304 50.6119 169.816 48.9493 167.077 47.8149C164.339 46.6806 161.404 46.0968 158.44 46.0968C157.041 46.0982 155.645 46.2275 154.269 46.4828C153.694 46.3769 153.111 46.4828 152.513 46.4147C150.386 41.7922 146.969 37.8821 142.674 35.1537C138.379 32.4254 133.387 30.9949 128.299 31.034H119.973C116.488 31.017 113.034 31.6878 109.809 33.0078C106.584 34.3278 103.651 36.2711 101.178 38.7264C98.7051 41.1817 96.7409 44.1008 95.3979 47.3164C94.055 50.532 93.3596 53.981 93.3517 57.4658C93.3517 57.6626 93.3517 57.761 93.3517 57.9578C87.8453 58.9303 82.9058 61.9373 79.5133 66.3822C76.1208 70.8271 74.5234 76.3849 75.038 81.9528C75.5525 87.5206 78.1415 92.6916 82.2911 96.4394C86.4408 100.187 91.8477 102.238 97.4391 102.185H179.187C183.001 102.359 186.728 101.01 189.548 98.4356C192.368 95.8614 194.05 92.2723 194.223 88.4581C194.397 84.6439 193.048 80.9169 190.474 78.097C187.9 75.2772 184.311 73.5954 180.496 73.4218H180.512Z" fill="#CC775D"/>
<path opacity="0.5" d="M180.512 73.4218C180.844 71.8592 181.012 70.2659 181.011 68.6683C181.011 65.7042 180.427 62.7691 179.293 60.0306C178.159 57.2921 176.496 54.8038 174.4 52.7078C172.304 50.6119 169.816 48.9493 167.077 47.8149C164.339 46.6806 161.404 46.0968 158.44 46.0968C157.041 46.0982 155.645 46.2275 154.269 46.4828C153.694 46.3769 153.111 46.4828 152.513 46.4147C150.386 41.7922 146.969 37.8821 142.674 35.1537C138.379 32.4254 133.387 30.9949 128.299 31.034H119.973C116.488 31.017 113.034 31.6878 109.809 33.0078C106.584 34.3278 103.651 36.2711 101.178 38.7264C98.7051 41.1817 96.7409 44.1008 95.3979 47.3164C94.055 50.532 93.3596 53.981 93.3517 57.4658C93.3517 57.6626 93.3517 57.761 93.3517 57.9578C87.8453 58.9303 82.9058 61.9373 79.5133 66.3822C76.1208 70.8271 74.5234 76.3849 75.038 81.9528C75.5525 87.5206 78.1415 92.6916 82.2911 96.4394C86.4408 100.187 91.8477 102.238 97.4391 102.185H179.187C183.001 102.359 186.728 101.01 189.548 98.4356C192.368 95.8614 194.05 92.2723 194.223 88.4581C194.397 84.6439 193.048 80.9169 190.474 78.097C187.9 75.2772 184.311 73.5954 180.496 73.4218H180.512Z" fill="white"/>
<path opacity="0.4" d="M180.512 73.4218C180.844 71.8592 181.012 70.2659 181.011 68.6683C181.011 65.7042 180.427 62.7691 179.293 60.0306C178.159 57.2921 176.496 54.8038 174.4 52.7078C172.304 50.6119 169.816 48.9493 167.077 47.8149C164.339 46.6806 161.404 46.0968 158.44 46.0968C157.041 46.0982 155.645 46.2275 154.269 46.4828C153.694 46.3769 153.111 46.4828 152.513 46.4147C150.386 41.7922 146.969 37.8821 142.674 35.1537C138.379 32.4254 133.387 30.9949 128.299 31.034C124.814 31.017 121.36 31.6878 118.135 33.0078C114.91 34.3278 111.977 36.2711 109.504 38.7264C107.031 41.1817 105.067 44.1008 103.724 47.3164C102.381 50.532 101.686 53.981 101.678 57.4658C101.678 57.6626 101.678 57.761 101.678 57.9578C96.1715 58.9303 91.232 61.9373 87.8395 66.3822C84.447 70.8271 82.8496 76.3849 83.3641 81.9528C83.8787 87.5206 86.4677 92.6916 90.6173 96.4394C94.7669 100.187 100.174 102.238 105.765 102.185H179.187C183.001 102.359 186.728 101.01 189.548 98.4356C192.368 95.8614 194.05 92.2723 194.223 88.4581C194.397 84.6439 193.048 80.9169 190.474 78.097C187.9 75.2772 184.311 73.5954 180.496 73.4218H180.512Z" fill="white"/>
<path d="M202.606 139.274H177.121C167.087 139.262 157.467 135.271 150.373 128.176C143.278 121.081 139.286 111.462 139.274 101.428V93.8586H131.705V101.428C131.719 113.469 136.508 125.012 145.022 133.526C153.536 142.04 165.08 146.829 177.121 146.843H202.606V139.274Z" fill="#CC775D"/>
<path d="M135.398 88.8176L128.836 95.3726H141.953L135.398 88.8176Z" fill="#CC775D"/>
<path d="M78.9322 236.41L74.3906 222.536C76.6304 220.624 79.2684 219.236 82.1124 218.473C84.9565 217.709 87.935 217.59 90.831 218.123L94.6157 231.112L78.9322 236.41Z" fill="#CC775D"/>
<path opacity="0.7" d="M78.9322 236.41L74.3906 222.536C76.6304 220.624 79.2684 219.236 82.1124 218.473C84.9565 217.709 87.935 217.59 90.831 218.123L94.6157 231.112L78.9322 236.41Z" fill="white"/>
<g opacity="0.2">
<path d="M76.5547 225.813C77.0968 225.208 77.6977 224.658 78.3486 224.171C79.013 223.658 79.7166 223.197 80.4529 222.793C80.854 222.581 81.2779 222.354 81.7245 222.157C82.1711 221.961 82.6177 221.771 83.0945 221.628C83.5589 221.471 84.0314 221.34 84.51 221.234L85.2139 221.075L85.9179 220.992C86.1449 220.992 86.372 220.924 86.5915 220.909H87.2425C87.6415 220.886 88.0416 220.899 88.4384 220.946C88.8017 220.984 89.1348 221.014 89.43 221.067L90.1869 221.242L90.8303 221.408C90.8303 221.408 90.5805 221.408 90.1642 221.408L89.4073 221.37H88.4233C88.0409 221.38 87.6594 221.41 87.2803 221.461C86.8557 221.5 86.4336 221.563 86.0163 221.65L85.3502 221.771L84.6841 221.945C84.2278 222.054 83.7779 222.188 83.3367 222.347C82.875 222.468 82.4436 222.672 82.0045 222.831C81.5655 222.99 81.1568 223.194 80.7556 223.384C80.3545 223.573 79.9987 223.762 79.6051 223.966C79.2115 224.171 78.9012 224.345 78.5908 224.527C77.9701 224.89 77.4554 225.2 77.077 225.442L76.5547 225.813Z" fill="#0F0F0F"/>
<path d="M76.9551 227.077C76.9551 227.077 77.1292 226.926 77.4622 226.691C77.7953 226.457 78.2646 226.116 78.8625 225.768C79.5415 225.358 80.2413 224.984 80.9592 224.648C81.7161 224.269 82.6169 223.936 83.4873 223.618C83.9339 223.49 84.3805 223.338 84.8195 223.217C85.2585 223.096 85.7051 222.99 86.1366 222.922C86.568 222.854 86.9843 222.755 87.3855 222.725C87.7867 222.695 88.1424 222.642 88.5133 222.634C89.0742 222.618 89.6355 222.638 90.1937 222.695L90.8295 222.77C90.8295 222.77 90.5949 222.808 90.1937 222.846C89.9969 222.846 89.7547 222.846 89.4822 222.922L88.5587 223.066C88.2181 223.119 87.8624 223.217 87.4763 223.285C87.0903 223.353 86.7194 223.482 86.288 223.573C85.8565 223.664 85.4553 223.815 85.0239 223.921C84.5925 224.027 84.1686 224.201 83.7371 224.337C82.0113 224.913 80.3234 225.609 79.0593 226.146C78.4311 226.426 77.8937 226.638 77.5455 226.812L76.9551 227.077Z" fill="#0F0F0F"/>
<path d="M78.0234 229.666C78.1715 229.518 78.3282 229.379 78.4927 229.25C78.7955 229 79.2497 228.644 79.7946 228.258C80.4339 227.818 81.0986 227.416 81.7854 227.055C82.5709 226.633 83.3825 226.261 84.2151 225.942C85.053 225.626 85.9132 225.373 86.7886 225.185C87.1935 225.101 87.6029 225.04 88.0148 225.003C88.4084 225.003 88.7718 224.92 89.12 224.928L90.051 224.966C90.331 224.966 90.5657 225.034 90.7625 225.056L91.3756 225.162C91.3756 225.162 91.1485 225.162 90.7549 225.2C90.5581 225.2 90.3235 225.2 90.0585 225.246L89.1502 225.367C88.8248 225.405 88.4766 225.495 88.0981 225.556C87.7196 225.617 87.3412 225.753 86.94 225.836C86.5388 225.919 86.1377 226.086 85.7214 226.199C85.3051 226.313 84.8963 226.487 84.48 226.631C84.0637 226.775 83.655 226.941 83.2538 227.115C82.8526 227.289 82.4514 227.441 82.0806 227.622C81.3236 227.963 80.6197 228.311 80.0217 228.606C79.4237 228.902 78.9166 229.159 78.576 229.363L78.0234 229.666Z" fill="#0F0F0F"/>
<path d="M78.6582 231.43C79.1827 230.91 79.7527 230.439 80.3613 230.022C80.9856 229.59 81.638 229.201 82.3142 228.856C82.6926 228.674 83.0711 228.493 83.4874 228.326C83.9037 228.16 84.3124 228.001 84.7439 227.88C85.1693 227.747 85.6013 227.635 86.0382 227.547C86.4596 227.45 86.887 227.382 87.3174 227.342C87.7189 227.29 88.1237 227.267 88.5285 227.274C88.8874 227.262 89.2467 227.277 89.6033 227.32L90.5117 227.441L91.1929 227.607C91.5638 227.706 91.7757 227.774 91.7757 227.774C91.7757 227.774 91.5486 227.774 91.1702 227.774H90.4814H89.5958C89.2492 227.773 88.9029 227.793 88.5588 227.834C88.1727 227.867 87.7887 227.92 87.4083 227.993C87.0147 228.046 86.6513 228.16 86.1972 228.251C85.743 228.341 85.3797 228.47 84.971 228.591C84.1639 228.836 83.3706 229.124 82.5942 229.454C81.8373 229.772 81.1636 230.097 80.5808 230.385C79.998 230.673 79.5135 230.93 79.1805 231.142L78.6582 231.43Z" fill="#0F0F0F"/>
<path d="M79.5371 233.791C79.6777 233.644 79.8268 233.505 79.9837 233.375C80.2789 233.125 80.6952 232.769 81.2326 232.383C81.8458 231.944 82.4854 231.542 83.1476 231.18C83.5034 230.976 83.9046 230.779 84.283 230.597C84.6615 230.415 85.0929 230.256 85.5017 230.075C85.9104 229.893 86.3419 229.787 86.7582 229.658C87.1745 229.53 87.5984 229.439 88.0147 229.363C88.4078 229.29 88.8045 229.237 89.203 229.204C89.5891 229.204 89.96 229.144 90.2854 229.159L91.1938 229.219C91.4587 229.219 91.6933 229.31 91.8826 229.341L92.473 229.477H91.8674C91.6782 229.477 91.4435 229.477 91.1862 229.477L90.3082 229.56C89.9902 229.598 89.6421 229.681 89.2863 229.727C88.9305 229.772 88.5294 229.908 88.1585 229.984C87.7876 230.06 87.4016 230.226 86.9701 230.332C86.5387 230.438 86.1678 230.605 85.7666 230.756C85.3654 230.907 84.9643 231.059 84.5782 231.233C84.1922 231.407 83.8213 231.558 83.4428 231.74C82.6859 232.081 82.0425 232.429 81.4597 232.724C80.8769 233.019 80.3924 233.269 80.067 233.481L79.5371 233.791Z" fill="#0F0F0F"/>
</g>
<path d="M76.9636 236.509L86.2889 229.439C86.4026 229.352 86.5337 229.29 86.6734 229.257C86.8131 229.224 86.9581 229.222 87.0988 229.25L97.7487 231.271C97.9574 231.309 98.149 231.411 98.297 231.563C98.4449 231.716 98.5418 231.91 98.5743 232.12C98.6067 232.329 98.5731 232.544 98.4781 232.734C98.383 232.923 98.2313 233.079 98.0439 233.178L89.256 237.939C89.1128 238.013 88.9552 238.054 88.7943 238.06L77.5918 238.348C77.3761 238.351 77.1648 238.286 76.9884 238.162C76.8119 238.038 76.6793 237.861 76.6095 237.657C76.5398 237.452 76.5365 237.231 76.6001 237.025C76.6637 236.819 76.7909 236.638 76.9636 236.509Z" fill="#CC775D"/>
<path d="M93.7754 240.702C93.7754 240.702 108.112 206.012 110.64 203.863C113.168 201.713 129.184 211.031 129.184 211.031L114.924 247.643L93.7754 240.702Z" fill="#CC775D"/>
<path opacity="0.2" d="M97.8932 240.452C97.8932 240.452 111.624 207.314 113.667 205.884C115.711 204.453 127.413 210.554 127.413 210.554C127.413 210.554 115.219 203.106 111.48 204.37C107.741 205.634 94.9941 239.695 94.9941 239.695L97.8932 240.452Z" fill="#0F0F0F"/>
<path d="M126.785 237.296H65.8984V273.25H126.785V237.296Z" fill="#0F0F0F"/>
<path opacity="0.2" d="M126.785 237.296H65.8984V273.25H126.785V237.296Z" fill="white"/>
<path opacity="0.4" d="M126.785 237.296H88.9844V273.25H126.785V237.296Z" fill="white"/>
<path d="M88.9844 237.674L103.321 226.131L135.301 228.311L126.785 237.674H88.9844Z" fill="#0F0F0F"/>
<path d="M88.9844 237.674L78.1528 225.185L55.2559 227.645L65.8982 237.296L88.9844 237.674Z" fill="#0F0F0F"/>
<path opacity="0.1" d="M88.9844 237.674L78.1528 225.185L55.2559 227.645L65.8982 237.296L88.9844 237.674Z" fill="white"/>
<path opacity="0.4" d="M88.9844 237.674L103.321 226.131L135.301 228.311L126.785 237.674H88.9844Z" fill="white"/>
<path d="M115.257 253.842C113.344 253.842 111.474 254.41 109.883 255.473C108.292 256.536 107.053 258.046 106.32 259.814C105.588 261.582 105.397 263.527 105.77 265.403C106.143 267.279 107.064 269.003 108.417 270.356C109.77 271.709 111.494 272.63 113.37 273.003C115.247 273.377 117.192 273.185 118.959 272.453C120.727 271.721 122.238 270.481 123.301 268.89C124.364 267.299 124.931 265.429 124.931 263.516C124.931 260.95 123.912 258.49 122.098 256.676C120.284 254.861 117.823 253.842 115.257 253.842ZM115.257 267.369C114.494 267.369 113.747 267.142 113.112 266.717C112.477 266.293 111.982 265.69 111.69 264.984C111.398 264.278 111.322 263.501 111.472 262.752C111.621 262.003 111.99 261.315 112.531 260.776C113.071 260.236 113.76 259.869 114.509 259.721C115.258 259.573 116.035 259.651 116.74 259.944C117.445 260.237 118.048 260.733 118.471 261.369C118.894 262.005 119.119 262.752 119.118 263.516C119.118 264.022 119.018 264.524 118.824 264.992C118.63 265.46 118.345 265.885 117.987 266.243C117.628 266.601 117.203 266.884 116.734 267.077C116.266 267.271 115.764 267.37 115.257 267.369Z" fill="#CC775D"/>
<path opacity="0.7" d="M123.976 259.315C123.802 258.957 123.605 258.611 123.386 258.278C123.103 257.828 122.778 257.404 122.417 257.014C120.764 255.182 118.467 254.059 116.006 253.88C115.755 253.852 115.502 253.84 115.249 253.842C113.78 253.845 112.331 254.182 111.011 254.827C109.691 255.473 108.536 256.41 107.632 257.568C106.729 258.726 106.1 260.075 105.795 261.512C105.49 262.949 105.516 264.437 105.871 265.862C105.96 266.234 106.077 266.598 106.219 266.952C106.422 267.48 106.675 267.987 106.976 268.466C107.761 269.776 108.845 270.881 110.14 271.69C111.434 272.499 112.903 272.99 114.424 273.121C114.704 273.121 114.984 273.159 115.264 273.159C116.9 273.158 118.509 272.741 119.94 271.95C121.372 271.158 122.579 270.016 123.45 268.632C124.321 267.247 124.827 265.664 124.92 264.031C125.013 262.398 124.691 260.767 123.984 259.292L123.976 259.315ZM115.257 267.369C115.136 267.376 115.014 267.376 114.893 267.369C114.194 267.305 113.526 267.05 112.961 266.632C112.396 266.214 111.957 265.65 111.692 265C111.602 264.779 111.531 264.551 111.48 264.318C111.454 264.173 111.436 264.026 111.427 263.879C111.419 263.766 111.419 263.652 111.427 263.539C111.426 263.032 111.525 262.53 111.718 262.062C111.911 261.594 112.194 261.168 112.552 260.809C112.91 260.451 113.335 260.166 113.803 259.972C114.271 259.778 114.773 259.678 115.279 259.678C115.37 259.671 115.461 259.671 115.552 259.678C116.346 259.728 117.106 260.025 117.724 260.526C117.877 260.653 118.018 260.792 118.148 260.942C118.26 261.062 118.361 261.192 118.451 261.328C118.903 261.971 119.143 262.738 119.14 263.523C119.139 264.031 119.037 264.534 118.841 265.003C118.645 265.471 118.359 265.896 117.998 266.254C117.637 266.611 117.209 266.894 116.739 267.085C116.268 267.276 115.764 267.373 115.257 267.369Z" fill="white"/>
<path opacity="0.2" d="M114.894 267.346L114.417 273.144C112.896 273.012 111.427 272.522 110.133 271.713C108.838 270.903 107.753 269.798 106.969 268.489L111.692 264.977C111.958 265.627 112.397 266.191 112.961 266.609C113.526 267.027 114.194 267.282 114.894 267.346Z" fill="white"/>
<path opacity="0.2" d="M122.417 257.014L117.702 260.518C117.083 260.017 116.324 259.721 115.529 259.671L116.006 253.88C118.467 254.059 120.764 255.182 122.417 257.014Z" fill="white"/>
<path opacity="0.2" d="M111.48 264.295L106.227 266.952C106.085 266.598 105.969 266.234 105.879 265.862L111.427 263.856C111.437 264.004 111.455 264.15 111.48 264.295Z" fill="white"/>
<path opacity="0.2" d="M123.978 259.315L118.43 261.321C118.34 261.184 118.238 261.055 118.127 260.935L123.388 258.278C123.606 258.611 123.803 258.957 123.978 259.315Z" fill="white"/>
<path d="M122.32 256.529C117.022 256.529 114.123 260.261 115.939 264.855C117.756 269.45 123.546 273.182 128.883 273.182C134.219 273.182 137.088 269.458 135.271 264.855C133.454 260.253 127.664 256.529 122.32 256.529ZM126.915 268.178C125.831 268.154 124.776 267.831 123.865 267.245C122.954 266.659 122.223 265.832 121.752 264.855C120.995 263.024 122.169 261.533 124.296 261.533C125.378 261.558 126.433 261.882 127.344 262.468C128.255 263.054 128.986 263.88 129.458 264.855C130.192 266.687 129.042 268.178 126.915 268.178Z" fill="#CC775D"/>
<path opacity="0.1" d="M132.895 261.237C132.599 260.935 132.289 260.632 131.956 260.344C131.513 259.953 131.046 259.591 130.556 259.262C128.353 257.708 125.772 256.774 123.085 256.56C122.82 256.56 122.57 256.56 122.328 256.56C117.029 256.56 114.13 260.284 115.947 264.886C116.228 265.599 116.591 266.278 117.029 266.907C117.261 267.236 117.514 267.55 117.786 267.845C118.174 268.318 118.597 268.761 119.05 269.17C121.538 271.459 124.707 272.868 128.073 273.182C128.361 273.182 128.648 273.182 128.928 273.182C134.272 273.182 137.133 269.45 135.324 264.855C134.753 263.505 133.928 262.277 132.895 261.237ZM126.907 268.178H126.536C124.993 268.026 123.564 267.299 122.532 266.142C122.37 265.957 122.224 265.76 122.093 265.552C122.018 265.43 121.95 265.303 121.889 265.173C121.837 265.078 121.792 264.979 121.753 264.878C120.996 263.039 122.169 261.555 124.296 261.555C124.387 261.548 124.478 261.548 124.568 261.555C125.435 261.621 126.275 261.879 127.028 262.312C127.225 262.422 127.414 262.543 127.596 262.676C127.748 262.776 127.892 262.887 128.028 263.009C128.658 263.505 129.153 264.154 129.466 264.893C130.192 266.687 129.042 268.178 126.907 268.178Z" fill="white"/>
<path opacity="0.2" d="M126.536 268.156L128.05 273.151C124.684 272.838 121.515 271.428 119.027 269.14L122.555 266.112C123.58 267.267 125 267.996 126.536 268.156Z" fill="white"/>
<path opacity="0.2" d="M130.554 259.262L127.027 262.289C126.273 261.857 125.433 261.598 124.567 261.533L123.053 256.544C125.752 256.758 128.344 257.697 130.554 259.262Z" fill="white"/>
<path opacity="0.2" d="M122.092 265.529L117.739 267.8C117.467 267.504 117.214 267.191 116.982 266.861L121.865 265.151C121.933 265.281 122.008 265.408 122.092 265.529Z" fill="white"/>
<path opacity="0.2" d="M132.894 261.237L128.027 262.971C127.892 262.849 127.748 262.738 127.596 262.638L131.956 260.367C132.289 260.632 132.599 260.935 132.894 261.237Z" fill="white"/>
<path d="M281.879 208.154L282.151 219.94L283.393 273.25H287.488L288.722 219.94L288.994 208.154H281.879Z" fill="#CC775D"/>
<path opacity="0.4" d="M281.879 208.154L282.151 219.94L283.393 273.25H287.488L288.722 219.94L288.994 208.154H281.879Z" fill="white"/>
<path opacity="0.2" d="M281.879 208.154L282.151 220.265H288.722L288.994 208.154H281.879Z" fill="#0F0F0F"/>
<path d="M259.641 273.061L263.425 208.987H269.609L264.311 273.061H259.641Z" fill="#CC775D"/>
<path opacity="0.5" d="M264.326 273.061H259.648L263.085 214.739L263.425 208.911H269.61L269.133 214.739L264.326 273.061Z" fill="white"/>
<path opacity="0.2" d="M269.609 208.911L269.132 214.967H263.084L263.425 208.911H269.609Z" fill="#0F0F0F"/>
<path d="M306.57 273.061L301.271 208.987H307.456L311.24 273.061H306.57Z" fill="#CC775D"/>
<path opacity="0.5" d="M306.555 273.061L301.748 214.739L301.271 208.911H307.456L307.796 214.739L311.233 273.061H306.555Z" fill="white"/>
<path opacity="0.2" d="M301.271 208.911L301.748 214.967H307.796L307.456 208.911H301.271Z" fill="#0F0F0F"/>
<path d="M310.764 211.205H260.11V206.156C260.11 205.152 260.509 204.19 261.219 203.48C261.928 202.77 262.891 202.371 263.895 202.371H306.979C307.983 202.371 308.945 202.77 309.655 203.48C310.365 204.19 310.764 205.152 310.764 206.156V211.22V211.205Z" fill="#CC775D"/>
<path d="M259.209 211.197H311.672C312.512 211.197 313.193 210.516 313.193 209.676V208.298C313.193 207.458 312.512 206.777 311.672 206.777H259.209C258.369 206.777 257.688 207.458 257.688 208.298V209.676C257.688 210.516 258.369 211.197 259.209 211.197Z" fill="#CC775D"/>
<path opacity="0.6" d="M259.209 211.197H311.672C312.512 211.197 313.193 210.516 313.193 209.676V208.298C313.193 207.458 312.512 206.777 311.672 206.777H259.209C258.369 206.777 257.688 207.458 257.688 208.298V209.676C257.688 210.516 258.369 211.197 259.209 211.197Z" fill="white"/>
<path d="M267.264 130.569C267.264 130.569 267.052 131.145 266.666 132.083C266.28 133.022 265.69 134.453 264.971 136.012C263.23 139.796 260.702 144.61 258.06 147.207C257.397 147.905 256.598 148.461 255.713 148.842C252.898 149.924 245.836 150.121 239.53 150.06C233.225 150 227.836 149.682 227.836 149.682V144.906L248.568 139.38C248.568 139.38 259.498 119.655 265.977 116.733L267.264 130.569Z" fill="#0F0F0F"/>
<path opacity="0.2" d="M266.665 132.091C266.271 133.075 265.688 134.46 264.969 136.019C263.228 139.804 260.7 144.618 258.059 147.214C255.372 137.314 265.31 127.89 265.31 127.89L266.665 132.091Z" fill="#0F0F0F"/>
<path d="M263.986 267.785L257.954 266.96L257.121 252.624L263.139 253.456L263.986 267.785Z" fill="#EBB376"/>
<path opacity="0.2" d="M263.139 253.456L257.121 252.631L257.598 260.821L263.616 261.351L263.139 253.456Z" fill="#0F0F0F"/>
<path d="M263.743 183.524L265.212 174.305L298.986 172.284C298.986 172.284 302.581 191.464 299.818 196.573C294.891 205.694 268.323 201.115 260.542 201.985C265.219 221.022 264.765 258.111 264.765 258.111L253.661 258.959C253.661 258.959 245.123 218.941 243.39 199.919C242.216 187.112 252.859 187.43 263.743 183.524Z" fill="#CC775D"/>
<path d="M266.068 258.664L252.723 259.534L251.58 253.82L266.242 253.146L266.068 258.664Z" fill="#CC775D"/>
<path d="M250.073 262.433L244.003 262.88L240.203 249.036L246.266 248.597L250.073 262.433Z" fill="#EBB376"/>
<path d="M243.186 263.084H243.08C243.08 262.993 242.77 261.29 242.036 260.889C241.942 260.842 241.838 260.818 241.733 260.818C241.628 260.818 241.524 260.842 241.43 260.889C241.315 260.925 241.215 260.999 241.147 261.1C241.08 261.2 241.049 261.321 241.059 261.442C241.206 261.943 241.522 262.379 241.953 262.675C241.4 262.486 240.798 262.503 240.257 262.721C240.184 262.776 240.126 262.848 240.089 262.932C240.052 263.015 240.037 263.107 240.045 263.198C240.035 263.341 240.067 263.483 240.135 263.609C240.203 263.735 240.306 263.839 240.431 263.909C240.811 264.057 241.232 264.057 241.612 263.909C242.138 263.753 242.646 263.54 243.126 263.273H243.179C243.179 263.273 243.179 263.273 243.179 263.228C243.195 263.208 243.205 263.183 243.206 263.157C243.208 263.131 243.201 263.106 243.186 263.084ZM241.362 261.389C241.362 261.305 241.362 261.199 241.567 261.124H241.635C241.688 261.105 241.745 261.099 241.802 261.106C241.858 261.112 241.912 261.131 241.96 261.162C242.399 261.396 242.717 262.32 242.846 262.872L242.709 262.834C242.111 262.479 241.415 261.797 241.362 261.389ZM240.567 263.614C240.493 263.563 240.432 263.494 240.391 263.413C240.35 263.333 240.33 263.243 240.333 263.152C240.329 263.108 240.336 263.064 240.353 263.023C240.37 262.982 240.397 262.946 240.431 262.918C240.779 262.66 241.884 262.88 242.702 263.122C241.695 263.622 240.923 263.803 240.567 263.614Z" fill="#CC775D"/>
<path opacity="0.2" d="M246.266 248.597L240.203 249.043L242.375 256.953L248.37 256.219L246.266 248.597Z" fill="#0F0F0F"/>
<path d="M238.144 255.977L248.831 252.813C248.831 252.813 242.451 216.798 235.964 204.309C236.448 204.15 237.092 203.946 237.886 203.711C239.317 203.28 241.217 202.742 243.45 202.122C258.982 197.815 290.462 189.738 290.462 189.738L276.081 176.318C276.081 176.318 218.797 185.053 217.608 200.146C217.056 207.397 238.144 255.977 238.144 255.977Z" fill="#CC775D"/>
<path d="M250.21 253.07L237.342 256.711L235.033 251.36L249.233 247.643L250.21 253.07Z" fill="#CC775D"/>
<path opacity="0.2" d="M237.901 203.734C239.332 203.302 241.232 202.765 243.465 202.144C243.018 198.481 243.011 194.28 244.774 192.138C248.279 187.869 257.294 185.363 262.426 184.455C266.718 183.698 281.137 182.184 281.137 182.184C281.137 182.184 262.426 180.39 243.291 185.969C233.844 188.739 235.684 197.981 237.901 203.734Z" fill="#0F0F0F"/>
<path d="M300.893 181.919C303.164 180.186 300.984 164.063 302.142 148.206C303.906 124.06 302.142 116.301 300.363 115.552C297.079 114.982 293.757 114.654 290.425 114.568C285.551 114.394 280.671 114.5 275.809 114.886C272.482 115.294 269.192 115.962 265.969 116.884C265.969 116.884 258.006 142.241 263.092 178.763L300.893 181.919Z" fill="#0F0F0F"/>
<path opacity="0.8" d="M302.77 135.777C302.672 139.327 302.46 143.445 302.112 148.198C300.953 164.056 303.118 180.178 300.863 181.912L263.054 178.755C260.797 162.903 260.784 146.811 263.016 130.955C266.089 126.157 272.054 120.684 274.794 118.285C275.704 119.281 276.938 119.922 278.276 120.094C281.22 120.669 284.581 119.337 287.359 117.641C289.554 119.829 293.717 124.257 295.541 127.988C295.732 128.375 295.901 128.772 296.049 129.177C297.207 132.416 300.741 128.42 302.543 123.212C302.852 127.393 302.928 131.588 302.77 135.777Z" fill="white"/>
<path d="M288.631 98.1807C287.806 102.904 287.072 111.533 290.425 114.606C289.064 116.068 287.426 117.246 285.608 118.072C283.789 118.898 281.825 119.356 279.828 119.42C273.773 119.685 275.816 114.878 275.816 114.878C281.039 113.516 280.812 109.625 279.82 105.992L288.631 98.1807Z" fill="#EBB376"/>
<path opacity="0.2" d="M285.036 101.382L279.82 106.03C280.065 106.874 280.234 107.737 280.327 108.611C282.326 108.285 285.028 106.022 285.202 103.918C285.302 103.07 285.246 102.21 285.036 101.382Z" fill="#0F0F0F"/>
<path d="M277.179 85.9564C279.791 87.7276 278.602 90.725 272.698 95.4255C270.307 92.3448 269.905 86.2894 271.813 84.7756C273.72 83.2617 274.909 84.4198 277.179 85.9564Z" fill="#0F0F0F"/>
<path d="M288.389 90.8309C288.109 97.2118 288.26 100.951 285.104 104.281C280.35 109.285 272.433 106.499 270.806 100.164C269.352 94.4717 270.049 85.0253 276.248 82.3534C277.61 81.7631 279.1 81.5313 280.577 81.68C282.054 81.8286 283.468 82.3528 284.685 83.2025C285.902 84.0523 286.882 85.1995 287.53 86.5347C288.178 87.87 288.474 89.349 288.389 90.8309Z" fill="#EBB376"/>
<path d="M278.92 92.7231C278.92 93.2454 278.663 93.6693 278.322 93.6768C277.981 93.6844 277.709 93.2681 277.701 92.7458C277.694 92.2235 277.951 91.8072 278.292 91.7997C278.632 91.7921 278.875 92.216 278.92 92.7231Z" fill="#0F0F0F"/>
<path d="M273.023 92.8368C273.023 93.3515 272.766 93.7754 272.425 93.7829C272.085 93.7905 271.805 93.3818 271.797 92.8519C271.789 92.3221 272.054 91.9058 272.395 91.9058C272.736 91.9058 273.016 92.3448 273.023 92.8368Z" fill="#0F0F0F"/>
<path d="M274.954 93.0486C274.364 94.6431 273.557 96.1485 272.555 97.522C272.914 97.7667 273.321 97.9312 273.75 98.0044C274.178 98.0775 274.617 98.0576 275.037 97.9459L274.954 93.0486Z" fill="#D58745"/>
<path d="M280.502 90.831C280.568 90.8397 280.636 90.8235 280.691 90.7856C280.723 90.7617 280.75 90.7318 280.77 90.6976C280.79 90.6634 280.803 90.6256 280.809 90.5862C280.815 90.5468 280.812 90.5067 280.803 90.4682C280.793 90.4297 280.775 90.3935 280.752 90.3617C280.462 89.9728 280.083 89.6592 279.647 89.4471C279.211 89.235 278.731 89.1308 278.246 89.1431C278.208 89.145 278.17 89.1546 278.135 89.1713C278.101 89.1881 278.07 89.2116 278.044 89.2406C278.019 89.2695 277.999 89.3033 277.987 89.3398C277.975 89.3764 277.97 89.415 277.974 89.4534C277.983 89.5317 278.022 89.6034 278.082 89.654C278.143 89.7046 278.22 89.7303 278.299 89.7259C278.682 89.7217 279.06 89.8087 279.402 89.9799C279.744 90.151 280.041 90.4013 280.267 90.7099C280.296 90.745 280.332 90.7739 280.372 90.7947C280.412 90.8155 280.456 90.8279 280.502 90.831Z" fill="#0F0F0F"/>
<path d="M270.307 90.8915C270.365 90.8917 270.422 90.8755 270.472 90.8447C270.521 90.8139 270.561 90.7698 270.587 90.7174C270.736 90.3652 270.966 90.0537 271.26 89.8088C271.554 89.5639 271.902 89.3927 272.275 89.3095C272.355 89.2964 272.426 89.2527 272.474 89.1877C272.522 89.1226 272.543 89.0414 272.532 88.9613C272.521 88.8821 272.479 88.8106 272.415 88.7624C272.351 88.7142 272.271 88.6931 272.191 88.7039C271.718 88.8029 271.275 89.014 270.899 89.3196C270.524 89.6251 270.227 90.0162 270.034 90.46C270.001 90.5323 269.997 90.6151 270.024 90.6902C270.051 90.7653 270.106 90.8268 270.178 90.8612C270.217 90.883 270.262 90.8935 270.307 90.8915Z" fill="#0F0F0F"/>
<path d="M285.771 85.2145C282.811 86.2893 283.235 89.4911 287.807 95.486C290.895 93.0562 292.765 87.296 291.273 85.3659C289.782 83.4357 288.39 84.2835 285.771 85.2145Z" fill="#0F0F0F"/>
<path d="M291.531 95.8643C291.325 96.6329 290.969 97.3534 290.485 97.9846C290.001 98.6158 289.396 99.1454 288.707 99.543C286.853 100.588 285.422 99.051 285.505 97.0451C285.589 95.2285 286.648 92.5036 288.715 92.2765C290.781 92.0494 292.03 93.9569 291.531 95.8643Z" fill="#EBB376"/>
<path d="M279.82 98.998C279.372 99.6836 278.744 100.232 278.004 100.583C277.264 100.935 276.441 101.075 275.627 100.989" stroke="#0F0F0F" stroke-width="0.296009" stroke-linecap="round" stroke-linejoin="round"/>
<path d="M279.306 84.2003C279.306 84.2003 280.26 90.5887 286.414 91.0126C292.568 91.4365 293.885 87.614 293.885 87.614C293.383 87.687 292.878 87.7274 292.371 87.7351C292.371 87.7351 294.172 84.6393 292.371 81.6797C290.569 78.7201 284.438 75.5562 279.889 77.1382C278.473 76.6756 276.978 76.5108 275.495 76.6541C274.013 76.7974 272.576 77.2457 271.275 77.9708C267.014 80.4459 267.771 85.8428 267.771 85.8428C267.771 85.8428 267.582 82.5653 269.572 81.6494C269.572 81.6494 267.112 88.3937 270.798 90.1951C270.791 90.1724 271.154 83.5342 279.306 84.2003Z" fill="#0F0F0F"/>
<path d="M268.837 144.573C268.837 144.573 246.886 144.073 245.645 143.952C244.404 143.831 239.204 140.924 238.076 140.765C236.948 140.606 234.004 145.307 233.633 146.397C233.262 147.487 241.959 150.439 242.799 150.31C243.772 150.051 244.717 149.699 245.622 149.258L268.027 152.142L268.837 144.573Z" fill="#EBB376"/>
<path d="M205.127 149.114V151.12C205.127 151.718 206.156 152.142 206.754 152.142H253.525C254.13 152.142 255.084 151.718 255.084 151.12V149.114H205.127Z" fill="#0F0F0F"/>
<path opacity="0.6" d="M205.127 149.114V151.12C205.127 151.718 206.156 152.142 206.754 152.142H253.525C254.13 152.142 255.084 151.718 255.084 151.12V149.114H205.127Z" fill="white"/>
<path opacity="0.2" d="M205.127 149.114V151.12C205.127 151.718 206.156 152.142 206.754 152.142H237.599C238.205 152.142 239.189 151.718 239.189 151.12V149.114H205.127Z" fill="#0F0F0F"/>
<path d="M197.626 124.522L203.197 149.871C203.296 150.284 203.525 150.655 203.851 150.928C204.177 151.2 204.582 151.361 205.006 151.385H235.404C235.6 151.367 235.788 151.307 235.957 151.207C236.126 151.108 236.27 150.972 236.38 150.809C236.489 150.647 236.561 150.462 236.59 150.268C236.619 150.075 236.604 149.877 236.547 149.689L230.984 124.62C230.871 124.237 230.629 123.905 230.3 123.679C229.97 123.452 229.573 123.347 229.175 123.379H198.777C197.959 123.379 197.445 123.697 197.626 124.522Z" fill="#0F0F0F"/>
<path opacity="0.6" d="M197.626 124.522L203.197 149.871C203.296 150.284 203.525 150.655 203.851 150.928C204.177 151.2 204.582 151.361 205.006 151.385H235.404C235.6 151.367 235.788 151.307 235.957 151.207C236.126 151.108 236.27 150.972 236.38 150.809C236.489 150.647 236.561 150.462 236.59 150.268C236.619 150.075 236.604 149.877 236.547 149.689L230.984 124.62C230.871 124.237 230.629 123.905 230.3 123.679C229.97 123.452 229.573 123.347 229.175 123.379H198.777C197.959 123.379 197.445 123.697 197.626 124.522Z" fill="white"/>
<path opacity="0.4" d="M197.626 124.522L203.197 149.871C203.296 150.284 203.525 150.655 203.851 150.928C204.177 151.2 204.582 151.361 205.006 151.385H234.383C234.578 151.367 234.767 151.306 234.936 151.207C235.104 151.107 235.249 150.972 235.359 150.809C235.469 150.647 235.542 150.463 235.572 150.269C235.602 150.075 235.589 149.877 235.533 149.689L229.97 124.62C229.856 124.237 229.615 123.905 229.285 123.679C228.956 123.452 228.559 123.347 228.161 123.379H198.777C197.959 123.379 197.445 123.697 197.626 124.522Z" fill="white"/>
<path opacity="0.2" d="M215.519 140.788C214.104 140.788 212.651 139.274 212.28 137.397C211.909 135.52 212.764 133.976 214.21 133.976C214.469 133.981 214.725 134.032 214.967 134.127C215.098 134.796 215.385 135.425 215.805 135.963C216.224 136.501 216.764 136.933 217.382 137.223C217.398 137.272 217.41 137.323 217.419 137.374C217.798 139.274 216.942 140.788 215.519 140.788Z" fill="#0F0F0F"/>
<path opacity="0.2" d="M302.771 135.777C299.508 141.076 294.944 146.715 290.395 146.45C285.634 146.17 290.433 136.451 295.55 127.988C295.74 128.375 295.909 128.772 296.057 129.177C297.215 132.416 300.75 128.42 302.551 123.212C302.858 127.393 302.931 131.588 302.771 135.777Z" fill="#0F0F0F"/>
<path d="M300.364 115.552C311.589 119.594 291.886 149.992 285.763 153.126C279.639 156.259 263.547 152.649 263.547 152.649L264.546 143.255C264.546 143.255 277.285 144.118 279.821 143.475C282.356 142.832 288.382 129.85 291.848 123.757C293.772 120.209 296.747 117.343 300.364 115.552Z" fill="#0F0F0F"/>
<path opacity="0.2" d="M266.068 258.664L252.723 259.534L251.58 253.82L266.242 253.146L266.068 258.664Z" fill="white"/>
<path opacity="0.2" d="M250.21 253.07L237.342 256.711L235.033 251.36L249.233 247.643L250.21 253.07Z" fill="white"/>
<path d="M243.413 262.259L249.983 260.428C250.092 260.394 250.209 260.403 250.311 260.454C250.412 260.505 250.49 260.593 250.528 260.7L252.307 265.817C252.381 266.093 252.343 266.387 252.202 266.635C252.06 266.883 251.826 267.065 251.55 267.141C249.242 267.739 248.114 267.898 245.215 268.701C243.436 269.193 239.969 270.328 237.434 270.616C234.898 270.903 234.686 268.39 235.73 268.05C238.213 267.217 241.188 264.628 242.475 262.872C242.71 262.569 243.041 262.353 243.413 262.259Z" fill="#0F0F0F"/>
<path d="M257.355 266.967C257.355 266.861 257.249 265.143 256.598 264.598C256.501 264.527 256.391 264.475 256.274 264.448C256.157 264.421 256.035 264.418 255.917 264.439C255.794 264.451 255.678 264.501 255.586 264.583C255.493 264.664 255.429 264.773 255.402 264.893C255.429 265.414 255.641 265.908 256 266.286C255.494 265.989 254.899 265.879 254.32 265.976C254.237 266.016 254.166 266.075 254.112 266.149C254.058 266.223 254.023 266.309 254.009 266.4C253.974 266.535 253.976 266.677 254.016 266.81C254.056 266.944 254.133 267.064 254.236 267.157C254.578 267.374 254.989 267.455 255.387 267.384C255.927 267.339 256.461 267.233 256.977 267.066C256.985 267.07 256.994 267.072 257.003 267.072C257.012 267.072 257.021 267.07 257.03 267.066V267.02C257.03 267.02 257.173 267.02 257.181 266.967C257.188 266.914 257.31 266.967 257.31 266.967H257.355ZM255.682 264.924C255.682 264.84 255.735 264.735 255.932 264.697H256C256.057 264.691 256.114 264.699 256.168 264.719C256.222 264.738 256.27 264.77 256.31 264.81C256.696 265.128 256.802 266.089 256.825 266.665L256.704 266.597C256.177 266.177 255.815 265.584 255.682 264.924ZM254.441 266.93C254.382 266.864 254.342 266.784 254.322 266.698C254.302 266.612 254.304 266.523 254.327 266.438C254.332 266.393 254.348 266.351 254.375 266.315C254.402 266.279 254.437 266.251 254.479 266.233C254.865 266.052 255.902 266.498 256.636 266.899C255.546 267.195 254.744 267.195 254.441 266.96V266.93Z" fill="#CC775D"/>
<path d="M257.498 266.233L264.311 265.809C264.367 265.802 264.424 265.806 264.479 265.821C264.534 265.836 264.585 265.862 264.629 265.898C264.674 265.933 264.711 265.977 264.738 266.027C264.765 266.076 264.782 266.131 264.788 266.188L265.454 271.562C265.464 271.702 265.446 271.842 265.402 271.975C265.358 272.108 265.287 272.231 265.195 272.337C265.103 272.442 264.99 272.528 264.865 272.59C264.739 272.652 264.602 272.689 264.462 272.697C262.085 272.811 260.942 272.743 257.945 272.909C256.106 273.015 252.48 273.409 249.937 273.159C247.393 272.909 247.711 270.411 248.809 270.29C251.405 269.995 254.864 268.088 256.477 266.634C256.763 266.391 257.123 266.25 257.498 266.233Z" fill="#0F0F0F"/>
<path d="M227.161 273.25H231.794L232.558 157.251H226.404L227.161 273.25Z" fill="#CC775D"/>
<path opacity="0.4" d="M226.396 157.44L226.518 176.159L227.153 273.25H231.793L232.429 176.159L232.55 157.44H226.396Z" fill="white"/>
<path opacity="0.2" d="M226.396 157.44L226.518 176.364H232.429L232.55 157.44H226.396Z" fill="#0F0F0F"/>
<path d="M177.932 273.25H182.564L190.898 157.251H184.744L177.932 273.25Z" fill="#CC775D"/>
<path opacity="0.5" d="M177.924 273.25H182.564L190.489 163.019L190.898 157.44H184.744L184.411 163.019L177.924 273.25Z" fill="white"/>
<path opacity="0.2" d="M184.41 162.739H190.488L190.897 157.44H184.743L184.41 162.739Z" fill="#0F0F0F"/>
<path d="M276.392 273.25H281.025L274.212 157.251H268.059L276.392 273.25Z" fill="#CC775D"/>
<path opacity="0.5" d="M268.059 157.44L268.467 163.019L276.392 273.25H281.025L274.545 163.019L274.212 157.44H268.059Z" fill="white"/>
<path opacity="0.2" d="M274.212 157.44H268.059L268.467 162.739H274.545L274.212 157.44Z" fill="#0F0F0F"/>
<path d="M277.451 160.158H181.503C181.288 160.158 181.076 160.115 180.878 160.033C180.679 159.951 180.499 159.831 180.347 159.679C180.195 159.527 180.075 159.347 179.993 159.148C179.91 158.95 179.868 158.737 179.868 158.523V154.352H279.086V158.523C279.086 158.956 278.914 159.372 278.607 159.679C278.3 159.985 277.885 160.158 277.451 160.158Z" fill="#CC775D"/>
<path opacity="0.6" d="M277.451 160.158H181.503C181.288 160.158 181.076 160.115 180.878 160.033C180.679 159.951 180.499 159.831 180.347 159.679C180.195 159.527 180.075 159.347 179.993 159.148C179.91 158.95 179.868 158.737 179.868 158.523V154.352H279.086V158.523C279.086 158.956 278.914 159.372 278.607 159.679C278.3 159.985 277.885 160.158 277.451 160.158Z" fill="white"/>
<path opacity="0.2" d="M179.868 157.251H279.086V154.345H179.868V157.251Z" fill="#0F0F0F"/>
<path d="M176.992 155.109H281.963C282.397 155.107 282.813 154.933 283.119 154.625C283.426 154.317 283.598 153.901 283.598 153.467C283.598 153.033 283.425 152.617 283.119 152.31C282.812 152.004 282.396 151.832 281.963 151.832H176.992C176.559 151.832 176.143 152.004 175.836 152.31C175.53 152.617 175.357 153.033 175.357 153.467C175.357 153.901 175.529 154.317 175.836 154.625C176.142 154.933 176.558 155.107 176.992 155.109Z" fill="#CC775D"/>
<path opacity="0.6" d="M176.992 155.109H281.963C282.397 155.107 282.813 154.933 283.119 154.625C283.426 154.317 283.598 153.901 283.598 153.467C283.598 153.033 283.425 152.617 283.119 152.31C282.812 152.004 282.396 151.832 281.963 151.832H176.992C176.559 151.832 176.143 152.004 175.836 152.31C175.53 152.617 175.357 153.033 175.357 153.467C175.357 153.901 175.529 154.317 175.836 154.625C176.142 154.933 176.558 155.107 176.992 155.109Z" fill="white"/>
</svg>
