<svg width="81" height="43" viewBox="0 0 81 43" fill="none" xmlns="http://www.w3.org/2000/svg">
<path d="M34.0756 7.08444C34.2218 8.07082 34.072 9.0784 33.6452 9.97958C33.2183 10.8808 32.5336 11.635 31.6778 12.1468C30.822 12.6585 29.8335 12.9048 28.8377 12.8544C27.8418 12.804 26.8833 12.4591 26.0835 11.8635C25.2837 11.268 24.6787 10.4485 24.3451 9.50878C24.0114 8.5691 23.9641 7.55154 24.2092 6.58497C24.4543 5.6184 24.9807 4.74631 25.7218 4.07914C26.4629 3.41197 27.3853 2.97974 28.3722 2.8372C29.0256 2.74156 29.6914 2.77555 30.3316 2.93724C30.9719 3.09893 31.574 3.38514 32.1036 3.77954C32.6332 4.17394 33.0799 4.66879 33.4183 5.23585C33.7567 5.80291 33.98 6.43106 34.0756 7.08444Z" fill="#F5F5F5"/>
<path d="M32.8912 7.25774C33.0021 8.00914 32.8874 8.77652 32.5619 9.46275C32.2364 10.149 31.7146 10.7232 31.0626 11.1127C30.4105 11.5023 29.6576 11.6896 28.8991 11.651C28.1405 11.6124 27.4105 11.3496 26.8014 10.8959C26.1922 10.4422 25.7314 9.81803 25.4772 9.10231C25.223 8.38658 25.1869 7.61153 25.3734 6.87526C25.5599 6.13899 25.9606 5.47461 26.5249 4.9662C27.0892 4.4578 27.7916 4.12824 28.5433 4.01924C29.5491 3.87338 30.5717 4.13242 31.3868 4.73953C32.2019 5.34664 32.743 6.25226 32.8912 7.25774Z" fill="#EBEBEB"/>
<path d="M32.8733 7.13843C32.8505 7.13843 32.8097 6.97771 32.7066 6.69584C32.5621 6.30012 32.3574 5.92911 32.0996 5.59595C31.9229 5.3691 31.7218 5.16236 31.4999 4.97943C31.2433 4.77158 30.9611 4.59744 30.6603 4.46127C30.4983 4.38715 30.3312 4.32502 30.1601 4.27535C29.7971 4.1699 29.4202 4.11976 29.0422 4.12662C28.6464 4.13427 28.2542 4.20388 27.88 4.33293C27.6986 4.39602 27.5222 4.4726 27.3522 4.56202C27.1881 4.64805 27.0309 4.7467 26.882 4.85709C26.7382 4.96203 26.6026 5.07792 26.4766 5.20373C26.0339 5.63702 25.7043 6.17248 25.5171 6.76301C25.3895 7.16444 25.3247 7.5832 25.3252 8.00443C25.3252 8.30549 25.3443 8.47342 25.3252 8.47702C25.306 8.48061 25.2508 8.31869 25.2148 8.01163C25.1687 7.57345 25.2045 7.13053 25.3204 6.70543C25.3985 6.41241 25.5104 6.12945 25.6538 5.86222C25.8242 5.55508 26.0356 5.27261 26.2823 5.02261C26.4153 4.8852 26.5589 4.75846 26.7117 4.64358C26.8702 4.52191 27.0383 4.4132 27.2143 4.31853C27.3964 4.21963 27.5861 4.1354 27.7816 4.06665C27.9833 3.99766 28.1898 3.94354 28.3993 3.90473C28.6098 3.86882 28.8227 3.84878 29.0362 3.84475C29.2433 3.84133 29.4503 3.85497 29.6552 3.88553C29.8528 3.9135 30.0477 3.95763 30.2381 4.01747C30.421 4.06904 30.5995 4.13522 30.7718 4.21538C31.3696 4.49922 31.8843 4.93211 32.2664 5.4724C32.5199 5.83191 32.7046 6.23536 32.8109 6.66225C32.8877 6.96331 32.8901 7.13603 32.8733 7.13843Z" fill="#E0E0E0"/>
<path d="M29.8545 10.0114L29.9601 10.6723L29.37 10.7659L29.268 10.1242C28.6791 10.1818 28.0889 10.0894 27.7243 9.88431L27.9342 9.11306C28.3097 9.29749 28.727 9.38021 29.1445 9.35295L28.9861 8.36941C28.3072 8.31543 27.5408 8.21348 27.4065 7.37147C27.3069 6.74656 27.6739 6.13724 28.5879 5.88295L28.4836 5.22806L29.0725 5.1333L29.1756 5.7762C29.6009 5.73216 30.0304 5.78971 30.4291 5.94413L30.2503 6.71657C29.9477 6.59969 29.6247 6.54423 29.3004 6.55345L29.4611 7.55618C30.1388 7.60416 30.8932 7.70731 31.0264 8.53853C31.1247 9.15025 30.7613 9.75237 29.8545 10.0114ZM28.8542 7.50221L28.7199 6.66259C28.4188 6.78254 28.3228 6.97445 28.354 7.16876C28.3852 7.36307 28.5747 7.46143 28.8542 7.50221ZM30.0944 8.75923C30.062 8.55292 29.8725 8.46896 29.605 8.42098L29.7358 9.23421C30.0141 9.12266 30.1184 8.94874 30.0884 8.75923H30.0944Z" fill="#E0E0E0"/>
<path d="M75.0133 21.4316C75.0133 21.4316 73.8966 20.7863 72.7416 23.4335C71.5865 26.0807 71.1823 27.5908 71.1823 27.5908C71.1823 27.5908 70.868 28.1497 70.4782 27.8211C70.0884 27.4924 69.5187 26.5233 68.9033 26.7416C68.2628 26.9671 68.0925 27.7071 68.2808 28.7674C68.4691 29.8277 68.7966 32.1691 68.8254 32.3802C68.8542 32.5913 68.7534 32.9031 68.4511 32.7208C68.1489 32.5385 66.3677 30.7813 65.5833 31.6761C64.7988 32.5709 65.81 35.4412 65.9155 35.7542C66.0211 36.0673 65.9647 36.2112 65.8172 36.3C65.6696 36.3887 65.1263 35.741 64.5997 35.2612C64.0732 34.7815 63.3775 34.3185 62.9685 34.8726C62.5595 35.4268 62.5499 37.6313 64.8492 41.0594L66.0187 42.5803L67.9378 42.3584C72.0051 41.6387 73.5836 40.101 73.6951 39.4221C73.8067 38.7432 72.9947 38.5633 72.2846 38.5165C71.5745 38.4698 70.7253 38.5273 70.6917 38.3594C70.6581 38.1915 70.7169 38.0548 71.0168 37.9108C71.3166 37.7669 74.0849 36.5051 74.1857 35.3188C74.2865 34.1326 71.7868 34.0702 71.4438 33.979C71.1007 33.8879 71.2603 33.5964 71.4294 33.4729C71.5985 33.3493 73.5152 31.9592 74.41 31.3594C75.3048 30.7597 75.7198 30.1228 75.4379 29.5051C75.1668 28.9054 74.0766 29.1729 73.5692 29.1201C73.0618 29.0673 73.2453 28.4532 73.2453 28.4532C73.2453 28.4532 74.0514 27.1122 75.1573 24.4446C76.2631 21.7771 74.9917 21.4184 74.9917 21.4184" fill="#EBEBEB"/>
<path d="M66.0898 42.1815C66.9103 40.2252 68.0653 37.5336 69.3511 34.5626C70.6369 31.5916 71.7992 28.9048 72.6292 26.9533L73.6116 24.642L73.879 24.0135L73.9498 23.8516C73.9666 23.8144 73.9762 23.7964 73.9762 23.7964C73.971 23.816 73.9646 23.8352 73.957 23.854L73.891 24.0183C73.8323 24.1658 73.7459 24.3781 73.6356 24.6516C73.4125 25.2009 73.0838 25.9938 72.676 26.9713C71.852 28.9276 70.6969 31.6264 69.4135 34.589C68.1301 37.5516 66.9654 40.2492 66.1354 42.1995" fill="#E0E0E0"/>
<path d="M69.6387 28.1221C69.6627 28.1621 69.6821 28.2047 69.6962 28.2492C69.7286 28.332 69.773 28.4531 69.827 28.609C69.9325 28.9101 70.0669 29.3287 70.2072 29.7953L70.567 30.9887C70.6102 31.1303 70.6462 31.2502 70.6762 31.3486C70.6928 31.3918 70.7041 31.4369 70.7098 31.4829C70.6855 31.4434 70.6662 31.4012 70.6522 31.357C70.6186 31.273 70.5742 31.1519 70.5227 30.9971C70.4195 30.6949 70.2912 30.2775 70.1508 29.8085L69.791 28.6186L69.6806 28.2588C69.6601 28.2155 69.6459 28.1695 69.6387 28.1221Z" fill="#E0E0E0"/>
<path d="M70.8828 31.5071C70.8828 31.4903 71.7296 31.1736 72.7863 30.7994C73.843 30.4252 74.7054 30.1361 74.7054 30.1541C74.7054 30.1721 73.8586 30.4876 72.8019 30.8618C71.7452 31.236 70.8888 31.5191 70.8828 31.5071Z" fill="#E0E0E0"/>
<path d="M68.7031 35.9733C68.7491 35.9623 68.7962 35.9571 68.8435 35.9577L69.2285 35.9349C69.5523 35.9157 70.0009 35.8869 70.4939 35.8377C70.9869 35.7885 71.4319 35.7322 71.7533 35.6866L72.1347 35.635C72.1812 35.6251 72.2288 35.6211 72.2763 35.623C72.2325 35.6414 72.1866 35.6539 72.1395 35.6602C72.0508 35.6794 71.9212 35.7046 71.7605 35.7334C71.4403 35.7897 70.9953 35.8533 70.4999 35.9037C70.0045 35.9541 69.5559 35.9733 69.2297 35.9805C69.0666 35.9805 68.9358 35.9805 68.8447 35.9805C68.7974 35.9844 68.7498 35.982 68.7031 35.9733Z" fill="#E0E0E0"/>
<path d="M66.9043 33.165C66.9043 33.165 66.9379 33.1986 66.9871 33.267C67.0362 33.3354 67.107 33.4337 67.1922 33.5585C67.3613 33.8055 67.5928 34.151 67.8447 34.5336C68.0965 34.9162 68.3244 35.2653 68.4828 35.5196C68.5631 35.6467 68.6267 35.751 68.6699 35.823C68.695 35.8604 68.7155 35.9007 68.7311 35.943C68.6989 35.9129 68.6711 35.8786 68.6483 35.841C68.5991 35.7726 68.5283 35.6731 68.4432 35.5495C68.2741 35.3013 68.0426 34.957 67.7907 34.5732C67.5388 34.1894 67.3109 33.8415 67.1526 33.5872C67.0722 33.4601 67.0086 33.3569 66.9655 33.2838C66.9406 33.2467 66.92 33.2069 66.9043 33.165Z" fill="#E0E0E0"/>
<path d="M64.4785 36.8677C64.5169 36.908 64.5514 36.9517 64.5817 36.9984C64.6512 37.098 64.74 37.2227 64.8455 37.3714C65.065 37.6881 65.3649 38.1283 65.6924 38.6153C66.0198 39.1022 66.3137 39.5472 66.5236 39.8699L66.7695 40.2549C66.8018 40.3009 66.8295 40.3499 66.8522 40.4012C66.8131 40.3609 66.7781 40.3167 66.7479 40.2693L66.4852 39.8963C66.2657 39.5796 65.9658 39.1406 65.6372 38.6525C65.3085 38.1643 65.0159 37.7205 64.806 37.3978C64.7076 37.2443 64.626 37.1148 64.5601 37.0128C64.5274 36.9677 64.5 36.919 64.4785 36.8677Z" fill="#E0E0E0"/>
<path d="M66.8203 40.2998C66.8789 40.2856 66.9388 40.2772 66.999 40.2746L67.4788 40.229C67.889 40.1894 68.4564 40.1342 69.0801 40.0551C69.7038 39.9759 70.2675 39.8919 70.6753 39.8272L71.1551 39.7516C71.2139 39.7392 71.2738 39.7327 71.3338 39.7324C71.2773 39.7525 71.2191 39.7674 71.1599 39.7768C71.0472 39.802 70.884 39.8356 70.6801 39.8728C70.2747 39.9495 69.711 40.0419 69.0861 40.1198C68.4612 40.1978 67.8866 40.2482 67.48 40.2746C67.2737 40.2878 67.107 40.2974 66.9918 40.301C66.9347 40.306 66.8773 40.3056 66.8203 40.2998Z" fill="#E0E0E0"/>
<path d="M24.6729 20.7232L24.6405 20.8239L23.6606 21.9298L23.5059 21.8806L24.4654 20.8011L23.7529 20.5792L23.6714 20.8383L23.531 20.7939L23.651 20.4077L24.6729 20.7232Z" fill="white"/>
<path d="M26.6534 21.3389L26.6222 21.4409L25.6411 22.5456L25.4863 22.4976L26.4459 21.4181L25.7262 21.1962L25.6459 21.4565L25.5043 21.4121L25.6243 21.0259L26.6534 21.3389Z" fill="white"/>
<path d="M27.706 22.7659C27.6293 23.0118 27.3738 23.0994 27.0428 22.9962C26.7117 22.8931 26.5558 22.6772 26.6325 22.4313C26.6557 22.352 26.7054 22.2831 26.7733 22.2362C26.8412 22.1892 26.9232 22.1671 27.0056 22.1734C26.9479 22.1326 26.905 22.0742 26.8834 22.0069C26.8617 21.9396 26.8625 21.8672 26.8856 21.8004C26.9552 21.5749 27.1915 21.4945 27.4853 21.5857C27.7792 21.6768 27.9303 21.8783 27.8608 22.1038C27.8414 22.1731 27.7997 22.2341 27.7423 22.2774C27.6849 22.3207 27.6149 22.344 27.5429 22.3437C27.6143 22.3848 27.6695 22.4491 27.6992 22.526C27.7289 22.6028 27.7313 22.6875 27.706 22.7659ZM27.5609 22.718C27.6137 22.5476 27.4997 22.3953 27.2539 22.3185C27.008 22.2418 26.8305 22.3041 26.7741 22.4745C26.7177 22.6448 26.8317 22.7995 27.0775 22.8751C27.3234 22.9506 27.5069 22.8907 27.5609 22.718ZM27.2898 22.2058C27.5057 22.273 27.6641 22.2154 27.7108 22.0655C27.7576 21.9155 27.6533 21.7716 27.4446 21.7056C27.2359 21.6396 27.0727 21.6936 27.0248 21.8484C26.9768 22.0031 27.0727 22.1386 27.2898 22.2058Z" fill="white"/>
<path d="M29.1525 22.8713C29.0062 23.3427 28.6727 23.5082 28.2949 23.3906C28.1791 23.3603 28.0737 23.2989 27.9902 23.2131L28.0826 23.116C28.1493 23.189 28.2361 23.2407 28.3321 23.2647C28.6307 23.3583 28.8838 23.2263 29.0002 22.8497C29.011 22.8173 29.0206 22.7777 29.0302 22.7297C28.9663 22.794 28.8851 22.8382 28.7964 22.857C28.7078 22.8757 28.6156 22.8682 28.5312 22.8353C28.2565 22.7501 28.115 22.527 28.1941 22.274C28.2733 22.0209 28.53 21.9141 28.7939 21.9957C29.1681 22.1096 29.2892 22.4275 29.1525 22.8713ZM29.0422 22.5342C29.0901 22.3819 29.0074 22.1972 28.7687 22.1228C28.7277 22.1047 28.6833 22.0955 28.6385 22.0957C28.5937 22.0958 28.5494 22.1055 28.5085 22.1239C28.4677 22.1424 28.4312 22.1692 28.4014 22.2027C28.3716 22.2362 28.3492 22.2756 28.3357 22.3183C28.2781 22.5007 28.3765 22.6602 28.5912 22.7262C28.8059 22.7921 28.9918 22.7022 29.0422 22.5294V22.5342Z" fill="white"/>
<path d="M30.7718 22.6214L30.34 24.0092L30.1973 23.9648L30.5895 22.7042L30.262 22.6022L30.3016 22.4751L30.7718 22.6214Z" fill="white"/>
<path d="M31.8057 24.326L31.7662 24.4531L30.791 24.1496L30.8222 24.0489L31.5743 23.6639C31.7794 23.5583 31.8381 23.4744 31.8681 23.3784C31.9173 23.2189 31.8357 23.0845 31.6282 23.0186C31.5589 22.9922 31.4845 22.9818 31.4106 22.988C31.3367 22.9942 31.2652 23.017 31.2012 23.0545L31.1281 22.9346C31.2113 22.887 31.304 22.8584 31.3996 22.8507C31.4952 22.8431 31.5912 22.8565 31.681 22.8902C31.9617 22.9778 32.096 23.1757 32.024 23.4072C31.9821 23.5403 31.9041 23.6471 31.6642 23.767L31.0489 24.0837L31.8057 24.326Z" fill="white"/>
<path d="M33.1353 24.4421C33.0633 24.6736 32.839 24.802 32.5031 24.6952C32.3189 24.6438 32.1608 24.5247 32.0605 24.3618L32.1649 24.2706C32.2482 24.4141 32.3842 24.5195 32.5439 24.5645C32.7742 24.6364 32.9349 24.5645 32.9877 24.3966C33.0405 24.2286 32.9565 24.0847 32.6999 24.0043L32.6003 23.9732L32.6327 23.8688L33.1676 23.509L32.4576 23.2883L32.4971 23.1611L33.3895 23.4382L33.3583 23.5402L32.8114 23.9108C33.1041 24.0175 33.2036 24.2202 33.1353 24.4421Z" fill="white"/>
<path d="M27.0762 25.4415L26.8887 26.0439L32.5874 27.8178L32.7749 27.2154L27.0762 25.4415Z" fill="white"/>
<path d="M18.284 36.2432C18.3762 36.8666 18.2813 37.5032 18.0115 38.0727C17.7416 38.6421 17.3089 39.1187 16.7681 39.4421C16.2273 39.7655 15.6027 39.9212 14.9733 39.8894C14.344 39.8577 13.7382 39.6399 13.2327 39.2638C12.7272 38.8876 12.3446 38.3699 12.1334 37.7762C11.9222 37.1825 11.8919 36.5395 12.0463 35.9286C12.2007 35.3177 12.5329 34.7663 13.0008 34.3442C13.4687 33.9222 14.0513 33.6484 14.6749 33.5576C15.0882 33.497 15.5094 33.5183 15.9145 33.6205C16.3196 33.7226 16.7006 33.9035 17.0357 34.1529C17.3708 34.4023 17.6536 34.7152 17.8678 35.0739C18.082 35.4325 18.2234 35.8299 18.284 36.2432Z" fill="#F5F5F5"/>
<path d="M17.5343 36.3536C17.6046 36.8288 17.5323 37.3142 17.3265 37.7484C17.1207 38.1825 16.7908 38.5458 16.3785 38.7923C15.9661 39.0388 15.4899 39.1575 15.0101 39.1332C14.5303 39.1089 14.0685 38.9428 13.6831 38.6559C13.2977 38.3691 13.0061 37.9743 12.8453 37.5216C12.6844 37.0689 12.6614 36.5787 12.7793 36.113C12.8972 35.6472 13.1506 35.2269 13.5074 34.9053C13.8643 34.5837 14.3086 34.3751 14.784 34.3061C15.4201 34.2134 16.0671 34.377 16.5827 34.7609C17.0984 35.1448 17.4406 35.7176 17.5343 36.3536Z" fill="#EBEBEB"/>
<path d="M17.5214 36.277C17.4766 36.1878 17.4412 36.0941 17.4158 35.9976C17.3243 35.7473 17.1949 35.5127 17.032 35.3019C16.7219 34.8989 16.2918 34.6049 15.8038 34.4623C15.6916 34.4286 15.5769 34.4041 15.4607 34.3891C15.3415 34.373 15.2212 34.3658 15.1009 34.3675C14.9759 34.3712 14.8513 34.3833 14.7279 34.4035C14.6059 34.4268 14.4857 34.4585 14.3681 34.4983C14.2534 34.538 14.1419 34.5865 14.0346 34.6434C13.8314 34.7512 13.6448 34.8878 13.4805 35.0488C13.3313 35.1949 13.2019 35.3598 13.0954 35.5394C13.0027 35.6966 12.9275 35.8635 12.8711 36.0371C12.7912 36.2909 12.7507 36.5555 12.7512 36.8216C12.7626 36.9212 12.7626 37.0218 12.7512 37.1214C12.7081 37.0289 12.6844 36.9285 12.6816 36.8264C12.6535 36.5491 12.6762 36.269 12.7488 36C12.8001 35.8132 12.8725 35.6329 12.9647 35.4626C13.0728 35.2672 13.2068 35.0873 13.3629 34.9277C13.4468 34.8407 13.5374 34.7604 13.634 34.6878C13.7345 34.6113 13.8408 34.5427 13.9518 34.4827C14.0675 34.4207 14.1878 34.3677 14.3117 34.3243C14.4394 34.2805 14.57 34.2461 14.7027 34.2212C14.8359 34.1984 14.9706 34.1855 15.1057 34.1828C15.2365 34.1812 15.3673 34.19 15.4967 34.2092C15.6219 34.2267 15.7455 34.2544 15.8662 34.2919C15.9817 34.3274 16.0943 34.3715 16.2032 34.4239C16.5813 34.6034 16.9068 34.8773 17.1484 35.2191C17.3096 35.4463 17.4275 35.7012 17.4962 35.9712C17.5267 36.0701 17.5353 36.1745 17.5214 36.277Z" fill="#E0E0E0"/>
<path d="M15.6121 38.095L15.6793 38.5124L15.3063 38.5723L15.2415 38.1657C14.9089 38.2087 14.571 38.1572 14.2664 38.017L14.3983 37.5288C14.6362 37.6437 14.8999 37.695 15.1636 37.6776L15.064 37.055C14.6334 37.0215 14.15 36.9579 14.0649 36.4241C14.0013 36.0295 14.234 35.6445 14.8121 35.4826L14.7461 35.0688L15.118 35.0088L15.1839 35.4154C15.4529 35.3878 15.7247 35.4244 15.9768 35.5222L15.864 36.0103C15.6729 35.9366 15.4691 35.9015 15.2643 35.9072L15.3663 36.5417C15.7957 36.5717 16.2718 36.6376 16.3558 37.163C16.4158 37.5504 16.1867 37.9306 15.6121 38.095ZM14.9764 36.5081L14.8913 35.9779C14.7006 36.0547 14.6394 36.1759 14.6598 36.2982C14.6802 36.4205 14.8037 36.4817 14.9764 36.5081ZM15.7609 37.3033C15.7405 37.1726 15.6205 37.1198 15.4514 37.0886L15.5342 37.6032C15.7141 37.5324 15.7801 37.4221 15.7609 37.3033Z" fill="#E0E0E0"/>
<path d="M65.8671 37.57C65.6344 37.901 65.1822 37.7919 64.9735 37.5892C64.7648 37.3865 64.6749 37.0926 64.5945 36.812C64.4098 36.1726 64.2251 35.501 64.3618 34.8485C64.395 34.651 64.4817 34.4664 64.6125 34.3147C64.6789 34.2402 64.7637 34.1845 64.8584 34.1529C64.9531 34.1213 65.0544 34.1151 65.1522 34.1348C65.3801 34.1948 65.5217 34.4191 65.6236 34.6314C65.9253 35.2579 66.0834 35.9438 66.0866 36.6392C66.0866 36.9631 66.0494 37.3025 65.8671 37.57Z" fill="#FD4545"/>
<g opacity="0.2">
<path d="M65.8671 37.57C65.6344 37.901 65.1822 37.7919 64.9735 37.5892C64.7648 37.3865 64.6749 37.0926 64.5945 36.812C64.4098 36.1726 64.2251 35.501 64.3618 34.8485C64.395 34.651 64.4817 34.4664 64.6125 34.3147C64.6789 34.2402 64.7637 34.1845 64.8584 34.1529C64.9531 34.1213 65.0544 34.1151 65.1522 34.1348C65.3801 34.1948 65.5217 34.4191 65.6236 34.6314C65.9253 35.2579 66.0834 35.9438 66.0866 36.6392C66.0866 36.9631 66.0494 37.3025 65.8671 37.57Z" fill="#1E1F24"/>
</g>
<path d="M64.9956 39.2513C64.6056 39.0681 64.1672 39.0147 63.7446 39.099C63.514 39.1192 63.2969 39.2164 63.1281 39.3749C62.9734 39.5452 62.9446 39.845 63.1209 39.9914C63.2354 40.0686 63.3733 40.1034 63.5107 40.0897C63.8406 40.0897 64.2076 40.0274 64.4703 40.2265C64.6214 40.3404 64.721 40.5287 64.9021 40.5863C64.9921 40.6068 65.0864 40.5975 65.1708 40.5599C65.2551 40.5223 65.325 40.4583 65.3699 40.3776C65.4565 40.2121 65.4755 40.0194 65.4226 39.8402C65.4018 39.7158 65.3524 39.5978 65.2783 39.4956C65.2042 39.3934 65.1075 39.3098 64.9956 39.2513Z" fill="#FD4545"/>
<path d="M66.5057 38.0474C66.3865 37.8912 66.3072 37.7084 66.2746 37.5146C66.242 37.3209 66.2571 37.1221 66.3186 36.9355C66.4453 36.561 66.6732 36.2289 66.9771 35.976C67.3211 35.6697 67.7216 35.4334 68.1561 35.2803C68.3243 35.2126 68.5051 35.1819 68.6863 35.1903C68.7767 35.1955 68.8645 35.2227 68.9421 35.2695C69.0196 35.3164 69.0846 35.3814 69.1313 35.459C69.2512 35.6989 69.1373 35.9832 69.0113 36.2171C68.7849 36.6305 68.5258 37.0252 68.2365 37.3973C68.005 37.696 67.7387 37.997 67.3849 38.1266C67.031 38.2561 66.6652 38.2465 66.4757 38.0066" fill="#FD4545"/>
<path d="M65.8812 42.5794C65.8699 42.5297 65.8631 42.4791 65.8608 42.4282C65.85 42.3191 65.8368 42.1812 65.82 42.0168C65.7994 41.8155 65.7685 41.6153 65.7277 41.4171C65.6733 41.1742 65.5999 40.936 65.5082 40.7046C65.4195 40.4735 65.2984 40.2562 65.1483 40.0593C64.9437 39.7861 64.6393 39.605 64.3015 39.5556C64.2505 39.5541 64.1998 39.5469 64.1504 39.534C64.2014 39.529 64.2529 39.529 64.3039 39.534C64.4438 39.545 64.5807 39.5807 64.7081 39.6395C64.8955 39.7298 65.0597 39.862 65.1879 40.0257C65.3449 40.2253 65.4718 40.4467 65.5645 40.683C65.6584 40.9181 65.7315 41.1609 65.7828 41.4087C65.8216 41.6109 65.8484 41.8151 65.8632 42.0204C65.8764 42.1943 65.8812 42.3359 65.8836 42.4342C65.8884 42.4825 65.8876 42.5312 65.8812 42.5794Z" fill="#263238"/>
<path d="M65.8555 42.2622C65.8527 42.2391 65.8527 42.2157 65.8555 42.1926C65.8555 42.1398 65.8555 42.0726 65.8555 41.9923C65.8555 41.8184 65.8555 41.5665 65.8459 41.2558C65.8303 40.6345 65.7776 39.7781 65.6744 38.8353C65.5713 37.8926 65.4345 37.0446 65.3062 36.4364C65.2762 36.2841 65.2462 36.1474 65.2186 36.0262C65.191 35.9051 65.1683 35.8019 65.1467 35.718C65.1251 35.634 65.1119 35.5752 65.0999 35.5237C65.0931 35.5011 65.089 35.4777 65.0879 35.4541C65.098 35.4753 65.1061 35.4974 65.1119 35.5201L65.1707 35.712C65.1958 35.7959 65.2222 35.8991 65.2522 36.019C65.2822 36.139 65.317 36.2745 65.3494 36.4269C65.5205 37.2191 65.6494 38.0198 65.7356 38.8257C65.8399 39.7709 65.8855 40.6249 65.8903 41.2522C65.8903 41.5641 65.8903 41.816 65.8795 41.9899C65.8795 42.0714 65.8699 42.1374 65.8675 42.1902C65.8657 42.2145 65.8617 42.2386 65.8555 42.2622Z" fill="#263238"/>
<path d="M65.8494 40.6043C65.8445 40.5348 65.8445 40.465 65.8494 40.3956C65.8578 40.2612 65.8758 40.0669 65.9142 39.8294C65.9598 39.5507 66.021 39.2748 66.0977 39.003C66.1897 38.6698 66.3051 38.3435 66.4432 38.0266C66.6826 37.4428 67.0264 36.9075 67.4579 36.447C67.5331 36.368 67.6132 36.2939 67.6978 36.2251C67.735 36.1951 67.7673 36.1639 67.7997 36.1399L67.8933 36.0751C67.9487 36.0332 68.0073 35.9955 68.0684 35.9624C67.8661 36.1228 67.6734 36.295 67.4915 36.4782C67.0752 36.9425 66.741 37.4742 66.5031 38.0506C66.366 38.3653 66.2498 38.6886 66.1553 39.0186C66.0653 39.322 66.0054 39.6015 65.9598 39.8366C65.9142 40.0717 65.8914 40.2648 65.8758 40.398C65.8728 40.4673 65.864 40.5364 65.8494 40.6043Z" fill="#263238"/>
<path d="M55.2516 17.2646H24.5782C23.4229 17.2646 22.4863 18.2012 22.4863 19.3565V40.4703C22.4863 41.6256 23.4229 42.5622 24.5782 42.5622H55.2516C56.4069 42.5622 57.3434 41.6256 57.3434 40.4703V19.3565C57.3434 18.2012 56.4069 17.2646 55.2516 17.2646Z" fill="#FD4545"/>
<path d="M57.343 19.3569C57.343 19.3569 57.343 19.3317 57.343 19.2813C57.3408 19.2062 57.3336 19.1313 57.3215 19.057C57.2794 18.765 57.1746 18.4856 57.0144 18.2378C56.897 18.0556 56.7531 17.8919 56.5874 17.7521C56.385 17.5862 56.1536 17.4593 55.9049 17.3778C55.8377 17.355 55.767 17.3418 55.6962 17.3214C55.6254 17.3011 55.5499 17.2987 55.4743 17.2867L55.2428 17.2759H53.9498L41.4432 17.2855H32.8072H27.995H24.8392C24.6263 17.2769 24.413 17.289 24.2023 17.3214C23.7782 17.3993 23.3894 17.6092 23.0917 17.9212C22.9413 18.0766 22.8169 18.2552 22.7234 18.4501C22.627 18.645 22.5638 18.8546 22.5363 19.0702C22.5156 19.2895 22.5088 19.5098 22.5159 19.7299V23.1112C22.5159 24.9391 22.5159 26.8035 22.5159 28.7042V40.4588C22.5167 40.9605 22.699 41.4449 23.0293 41.8225C23.355 42.198 23.8068 42.4416 24.2995 42.5074C24.5452 42.5287 24.7919 42.5355 25.0384 42.5278H44.0088H53.9222H55.0761C55.2644 42.5336 55.4528 42.5211 55.6386 42.4906C55.8213 42.4555 55.9985 42.3957 56.1652 42.3131C56.2479 42.2725 56.328 42.2268 56.4051 42.1764C56.4801 42.1236 56.5522 42.0668 56.621 42.0061C56.8252 41.8264 56.9916 41.6079 57.1104 41.3632C57.2292 41.1186 57.2981 40.8527 57.3131 40.5811C57.3251 39.1418 57.3131 37.7576 57.3203 36.4382C57.3203 31.1607 57.3287 26.8858 57.3311 23.9328C57.3311 22.4563 57.331 21.3108 57.337 20.5324C57.337 20.1449 57.337 19.8487 57.337 19.6484C57.337 19.4481 57.337 19.3473 57.337 19.3473C57.337 19.3473 57.337 19.4493 57.337 19.6484C57.337 19.8475 57.337 20.1449 57.337 20.5324C57.337 21.3108 57.337 22.4515 57.343 23.9328C57.343 26.8858 57.343 31.1583 57.3526 36.4382C57.3526 37.7576 57.361 39.1406 57.3526 40.5835C57.3324 40.9533 57.2149 41.3112 57.012 41.621C56.9108 41.7767 56.7898 41.9186 56.6522 42.0432C56.5817 42.1055 56.5076 42.1636 56.4303 42.2172C56.3531 42.2686 56.273 42.3155 56.1904 42.3575C56.0201 42.4428 55.8389 42.5041 55.6518 42.5398C55.4629 42.5717 55.2712 42.5846 55.0797 42.5782H53.9258H44.0124H33.0567H25.0336C24.7843 42.5859 24.5347 42.5787 24.2863 42.5566C23.7786 42.49 23.313 42.2395 22.9777 41.8525C22.6391 41.4646 22.4517 40.9677 22.4499 40.4528C22.4499 36.4238 22.4499 32.492 22.4499 28.6982V23.1112C22.4499 22.198 22.4499 21.2944 22.4499 20.4004V19.7323C22.4428 19.5094 22.45 19.2862 22.4715 19.0642C22.4999 18.8426 22.5652 18.6274 22.6646 18.4273C22.7605 18.2264 22.8885 18.0425 23.0437 17.8828C23.1973 17.7248 23.3735 17.5906 23.5666 17.4846C23.7607 17.3815 23.9695 17.3087 24.1855 17.2687L24.3475 17.2435L24.5094 17.2351C24.6185 17.2291 24.7253 17.2351 24.832 17.2351H32.8H41.436L53.9426 17.2459H55.2296L55.4635 17.2579C55.5391 17.2711 55.6146 17.2795 55.6866 17.2951C55.7586 17.3107 55.8293 17.3286 55.8965 17.3526C56.1472 17.4352 56.3802 17.5637 56.5838 17.7317C56.7503 17.8728 56.8947 18.0382 57.012 18.2222C57.1715 18.4721 57.2747 18.7537 57.3143 19.0475C57.3265 19.122 57.3329 19.1974 57.3334 19.2729C57.343 19.3317 57.343 19.3569 57.343 19.3569Z" fill="#263238"/>
<path d="M56.123 18.8242C56.3611 18.7826 56.6046 18.7826 56.8427 18.8242C56.6046 18.8657 56.3611 18.8657 56.123 18.8242Z" fill="#263238"/>
<path d="M53.1855 18.8242C53.674 18.7826 54.1652 18.7826 54.6537 18.8242C54.1652 18.8657 53.674 18.8657 53.1855 18.8242Z" fill="#263238"/>
<path d="M50.25 18.8242C50.7381 18.7826 51.2288 18.7826 51.7169 18.8242C51.2288 18.8658 50.7381 18.8658 50.25 18.8242Z" fill="#263238"/>
<path d="M47.3145 18.8242C47.8029 18.7826 48.2941 18.7826 48.7826 18.8242C48.2941 18.8657 47.8029 18.8657 47.3145 18.8242Z" fill="#263238"/>
<path d="M44.3789 18.8242C44.867 18.7826 45.3577 18.7826 45.8458 18.8242C45.3577 18.8658 44.867 18.8658 44.3789 18.8242Z" fill="#263238"/>
<path d="M41.4434 18.8242C41.9319 18.7826 42.423 18.7826 42.9115 18.8242C42.423 18.8657 41.9319 18.8657 41.4434 18.8242Z" fill="#263238"/>
<path d="M38.5078 18.8242C38.9959 18.7826 39.4866 18.7826 39.9747 18.8242C39.4866 18.8658 38.9959 18.8658 38.5078 18.8242Z" fill="#263238"/>
<path d="M35.5723 18.8242C36.0608 18.7826 36.5519 18.7826 37.0404 18.8242C36.5519 18.8657 36.0608 18.8657 35.5723 18.8242Z" fill="#263238"/>
<path d="M32.6367 18.8242C33.1252 18.7826 33.6163 18.7826 34.1048 18.8242C33.6163 18.8657 33.1252 18.8657 32.6367 18.8242Z" fill="#263238"/>
<path d="M29.7012 18.8245C29.9434 18.7938 30.1877 18.7834 30.4316 18.7933C30.6768 18.7832 30.9223 18.7936 31.1657 18.8245C30.9224 18.856 30.6768 18.8664 30.4316 18.8556C30.1877 18.8662 29.9433 18.8558 29.7012 18.8245Z" fill="#263238"/>
<path d="M26.7637 18.8245C27.0071 18.7936 27.2526 18.7832 27.4977 18.7933C27.7429 18.7832 27.9884 18.7936 28.2318 18.8245C27.9885 18.856 27.7429 18.8664 27.4977 18.8556C27.2526 18.8664 27.007 18.856 26.7637 18.8245Z" fill="#263238"/>
<path d="M24.5783 19.5438C24.5467 19.3053 24.5363 19.0645 24.5471 18.8242L24.5783 18.793H24.8578L25.0869 18.8002C25.1579 18.7976 25.2289 18.8048 25.298 18.8218C25.2291 18.8395 25.158 18.8472 25.0869 18.8445L24.8578 18.8505H24.7234H24.5783L24.6095 18.8194C24.6199 19.0613 24.6094 19.3037 24.5783 19.5438Z" fill="#263238"/>
<path d="M24.5783 22.2342C24.5467 22.0114 24.5363 21.7861 24.5471 21.5613C24.5363 21.337 24.5468 21.1121 24.5783 20.8896C24.6091 21.1121 24.6195 21.337 24.6095 21.5613C24.6195 21.7861 24.6091 22.0113 24.5783 22.2342Z" fill="#263238"/>
<path d="M24.5781 24.9247C24.5365 24.4774 24.5365 24.0273 24.5781 23.5801C24.6196 24.0273 24.6196 24.4774 24.5781 24.9247Z" fill="#263238"/>
<path d="M24.5781 27.6153C24.5365 27.1677 24.5365 26.7172 24.5781 26.2695C24.6196 26.7172 24.6196 27.1677 24.5781 27.6153Z" fill="#263238"/>
<path d="M24.5781 30.3072C24.5365 29.8596 24.5365 29.4091 24.5781 28.9614C24.6196 29.4091 24.6196 29.8596 24.5781 30.3072Z" fill="#263238"/>
<path d="M24.5781 32.9945C24.5365 32.5473 24.5365 32.0971 24.5781 31.6499C24.6196 32.0971 24.6196 32.5473 24.5781 32.9945Z" fill="#263238"/>
<path d="M24.5781 35.6849C24.5365 35.2377 24.5365 34.7876 24.5781 34.3403C24.6196 34.7876 24.6196 35.2377 24.5781 35.6849Z" fill="#263238"/>
<path d="M24.5781 38.3753C24.5365 37.9281 24.5365 37.478 24.5781 37.0308C24.6196 37.478 24.6196 37.9281 24.5781 38.3753Z" fill="#263238"/>
<path d="M25.297 40.4402C25.0584 40.471 24.8176 40.4814 24.5773 40.4713C24.5149 40.409 24.5593 40.4533 24.5461 40.4389V40.2962C24.5461 40.2494 24.5461 40.2051 24.5461 40.1607C24.5461 40.0815 24.5461 40.0059 24.5461 39.9316C24.5427 39.8609 24.5503 39.79 24.5689 39.7217C24.5859 39.7903 24.5931 39.8609 24.5905 39.9316C24.5905 40.0059 24.5905 40.0815 24.5977 40.1607C24.5977 40.2051 24.5977 40.2494 24.5977 40.2962C24.5977 40.319 24.5977 40.343 24.5977 40.367V40.4389C24.5833 40.4258 24.6289 40.4713 24.5665 40.409C24.8104 40.3975 25.0549 40.408 25.297 40.4402Z" fill="#263238"/>
<path d="M28.1913 40.4405C27.9527 40.4711 27.712 40.4815 27.4716 40.4716C27.2313 40.4815 26.9905 40.4711 26.752 40.4405C26.9905 40.4091 27.2313 40.3987 27.4716 40.4093C27.712 40.3987 27.9528 40.4091 28.1913 40.4405Z" fill="#263238"/>
<path d="M31.0839 40.4405C30.8453 40.4711 30.6045 40.4815 30.3642 40.4716C30.1239 40.4815 29.8831 40.4711 29.6445 40.4405C29.8831 40.4091 30.1239 40.3987 30.3642 40.4093C30.6045 40.3987 30.8453 40.4091 31.0839 40.4405Z" fill="#263238"/>
<path d="M33.9758 40.4399C33.4945 40.4815 33.0106 40.4815 32.5293 40.4399C33.0106 40.3983 33.4945 40.3983 33.9758 40.4399Z" fill="#263238"/>
<path d="M36.8704 40.4399C36.3891 40.4815 35.9051 40.4815 35.4238 40.4399C35.9051 40.3983 36.3891 40.3983 36.8704 40.4399Z" fill="#263238"/>
<path d="M39.7629 40.4399C39.2817 40.4815 38.7977 40.4815 38.3164 40.4399C38.7977 40.3983 39.2817 40.3983 39.7629 40.4399Z" fill="#263238"/>
<path d="M42.6555 40.4399C42.1742 40.4815 41.6903 40.4815 41.209 40.4399C41.6903 40.3983 42.1742 40.3983 42.6555 40.4399Z" fill="#263238"/>
<path d="M45.5442 40.4399C45.0629 40.4815 44.5789 40.4815 44.0977 40.4399C44.5789 40.3983 45.0629 40.3983 45.5442 40.4399Z" fill="#263238"/>
<path d="M48.4426 40.4399C47.9613 40.4815 47.4774 40.4815 46.9961 40.4399C47.4774 40.3983 47.9613 40.3983 48.4426 40.4399Z" fill="#263238"/>
<path d="M51.3352 40.4399C50.8539 40.4815 50.37 40.4815 49.8887 40.4399C50.37 40.3983 50.8539 40.3983 51.3352 40.4399Z" fill="#263238"/>
<path d="M54.2297 40.4399C53.7485 40.4815 53.2645 40.4815 52.7832 40.4399C53.2645 40.3983 53.7485 40.3983 54.2297 40.4399Z" fill="#263238"/>
<path d="M56.3954 40.4399C56.1574 40.4814 55.9139 40.4814 55.6758 40.4399C55.9139 40.3983 56.1574 40.3983 56.3954 40.4399Z" fill="#263238"/>
<g opacity="0.3">
<path d="M34.5094 31.2964C34.5094 31.2964 34.5166 32.4958 34.1496 33.2155C33.7825 33.9352 33.6698 34.2206 32.9022 34.4989C32.1345 34.7772 22.4766 35.8387 22.4766 35.8387V32.5798L34.5094 31.2964Z" fill="#1E1F24"/>
</g>
<g opacity="0.3">
<path d="M34.3405 26.7742C34.3405 26.7742 34.4508 25.5496 31.379 25.095C27.8658 24.5756 22.4863 23.9375 22.4863 23.9375V26.2536L34.3405 26.7742Z" fill="#1E1F24"/>
</g>
<path d="M32.7969 25.6636H22.8043C21.8564 25.6636 21.0879 26.432 21.0879 27.38V31.8539C21.0879 32.8019 21.8564 33.5703 22.8043 33.5703H32.7969C33.7448 33.5703 34.5133 32.8019 34.5133 31.8539V27.38C34.5133 26.432 33.7448 25.6636 32.7969 25.6636Z" fill="#FD4545"/>
<path d="M22.8052 33.5691C22.8052 33.5691 22.7704 33.5691 22.7032 33.5691C22.6026 33.5653 22.5025 33.5516 22.4046 33.5283C22.2443 33.4922 22.0902 33.4324 21.9476 33.3508C21.7521 33.2405 21.5805 33.0925 21.4426 32.9154C21.2679 32.6934 21.1505 32.4319 21.1008 32.1538C21.0758 31.9952 21.0661 31.8345 21.072 31.674C21.072 31.5085 21.072 31.3358 21.072 31.157C21.072 30.4434 21.072 29.6313 21.072 28.733C21.072 28.2832 21.072 27.8142 21.072 27.3224C21.08 27.0632 21.1461 26.809 21.2652 26.5786C21.3843 26.3482 21.5536 26.1475 21.7605 25.991C21.9779 25.8238 22.2327 25.7119 22.5029 25.6648C22.64 25.642 22.779 25.6324 22.9179 25.636H25.0769H32.8062C33.0665 25.6354 33.3237 25.6933 33.5587 25.8054C33.7937 25.9175 34.0005 26.081 34.1639 26.2837C34.3803 26.5489 34.5131 26.8725 34.5453 27.2133C34.5585 27.3824 34.5537 27.5467 34.5549 27.711C34.5549 28.0397 34.5549 28.3655 34.5549 28.6886V30.5921C34.5549 30.9028 34.5549 31.211 34.5549 31.5145C34.5549 31.668 34.5609 31.8167 34.5549 31.9703C34.5506 32.0463 34.5413 32.1221 34.5274 32.197C34.511 32.2707 34.491 32.3435 34.4674 32.4153C34.3697 32.6961 34.202 32.9473 33.9802 33.1452C33.7583 33.3432 33.4897 33.4812 33.1996 33.5463C33.1303 33.5623 33.0602 33.5747 32.9897 33.5835C32.9189 33.5895 32.8481 33.5919 32.7774 33.5943H31.5599H28.6213L24.3656 33.5835L23.2082 33.5775H22.9083H22.8052C22.8052 33.5775 22.84 33.5775 22.9083 33.5775H23.2082L24.3656 33.5715L28.6213 33.5619H31.5599H32.3648C32.6382 33.5547 32.9177 33.5847 33.1864 33.514C33.4645 33.4475 33.7213 33.3117 33.9327 33.1191C34.1441 32.9266 34.3033 32.6836 34.3954 32.4129C34.4986 32.1358 34.4842 31.8347 34.4842 31.5301V30.6077C34.4842 29.9864 34.4842 29.3507 34.4842 28.7042V27.7266C34.4842 27.5623 34.4842 27.3956 34.4758 27.2349C34.4435 26.9062 34.3154 26.5943 34.1076 26.3377C34.0029 26.2107 33.8819 26.0982 33.7477 26.003C33.6083 25.9112 33.457 25.839 33.2979 25.7883C33.1369 25.7414 32.9703 25.7164 32.8026 25.714H25.0733H22.9143C22.7782 25.7104 22.6421 25.7196 22.5077 25.7415C22.246 25.7869 21.9991 25.8947 21.788 26.0558C21.5868 26.2074 21.4221 26.4021 21.3058 26.6256C21.1896 26.8491 21.1249 27.0958 21.1163 27.3476C21.1103 27.8358 21.1163 28.3072 21.1163 28.757C21.1163 29.6553 21.1163 30.4674 21.1163 31.181C21.1163 31.3597 21.1163 31.5325 21.1163 31.698C21.1103 31.8564 21.1191 32.015 21.1427 32.1718C21.2003 32.4988 21.3515 32.802 21.5781 33.0447C21.8046 33.2874 22.0967 33.4592 22.4189 33.5391C22.5161 33.5634 22.6153 33.5787 22.7152 33.5847L22.8052 33.5691Z" fill="#263238"/>
<path d="M30.4696 32.7883C32.0568 32.7883 33.3435 31.5016 33.3435 29.9144C33.3435 28.3272 32.0568 27.0405 30.4696 27.0405C28.8824 27.0405 27.5957 28.3272 27.5957 29.9144C27.5957 31.5016 28.8824 32.7883 30.4696 32.7883Z" fill="#263238"/>
<path d="M31.2051 32.2617C31.4482 32.1715 31.6788 32.0506 31.8912 31.9019C32.1171 31.7361 32.3134 31.5334 32.4717 31.3021C32.6688 31.0216 32.7992 30.6997 32.853 30.3611C32.9069 30.0225 32.8827 29.6761 32.7823 29.3482C32.704 29.0791 32.5798 28.8255 32.4153 28.5986C32.2603 28.3911 32.0789 28.2048 31.8756 28.0444C31.8756 28.0444 31.8936 28.0516 31.9223 28.0708C31.9667 28.0985 32.0096 28.1285 32.0507 28.1608C32.2017 28.2797 32.3364 28.418 32.4513 28.5722C32.6237 28.8006 32.7545 29.0576 32.8375 29.3314C32.9442 29.6671 32.9709 30.023 32.9155 30.3708C32.8601 30.7186 32.7241 31.0486 32.5185 31.3345C32.3553 31.568 32.1523 31.771 31.9188 31.9342C31.762 32.0452 31.5909 32.1343 31.4102 32.1993C31.3616 32.2179 31.3119 32.2336 31.2615 32.2461C31.2439 32.2549 31.2247 32.2602 31.2051 32.2617Z" fill="#FAFAFA"/>
<path d="M62.4956 4.81917C62.5928 5.86577 62.3773 6.91769 61.8762 7.84169C61.3751 8.76569 60.6111 9.5202 59.6809 10.0096C58.7507 10.4991 57.6962 10.7014 56.6509 10.5911C55.6056 10.4807 54.6165 10.0626 53.809 9.38969C53.0016 8.71678 52.4119 7.81936 52.1149 6.8111C51.8178 5.80283 51.8267 4.72909 52.1404 3.72587C52.4541 2.72265 53.0584 1.8351 53.8769 1.17563C54.6954 0.516162 55.6912 0.114452 56.7382 0.0213804C58.1376 -0.104611 59.5299 0.329838 60.6093 1.22936C61.6887 2.12888 62.3671 3.41995 62.4956 4.81917Z" fill="#FD4545"/>
<g opacity="0.3">
<path d="M61.2259 4.80243C61.2019 4.80243 61.1695 4.63091 61.0772 4.32265C60.9478 3.89758 60.7536 3.49503 60.5014 3.1292C60.3274 2.8795 60.1263 2.64981 59.9017 2.44432C59.645 2.20845 59.3587 2.00687 59.0501 1.84459C58.884 1.75706 58.7116 1.68208 58.5344 1.6203C58.3501 1.55548 58.1613 1.50456 57.9694 1.46797C57.7715 1.42998 57.571 1.40713 57.3697 1.3996C57.1614 1.39251 56.953 1.40092 56.746 1.42479C56.5395 1.45044 56.3351 1.49051 56.1343 1.54473C55.9397 1.60066 55.7496 1.67123 55.5657 1.75584C55.2172 1.9159 54.8939 2.12602 54.6062 2.37955C54.3449 2.60925 54.1143 2.8717 53.9201 3.16039C53.7516 3.41365 53.6116 3.68477 53.5027 3.96881C53.3446 4.38374 53.2524 4.82081 53.2292 5.26422C53.2112 5.58087 53.222 5.75839 53.1968 5.76198C53.1716 5.76558 53.1284 5.59046 53.1081 5.26422C53.0852 4.80038 53.1487 4.33633 53.2952 3.89565C53.5132 3.23283 53.8991 2.63777 54.4154 2.16844C54.7198 1.88957 55.0643 1.6579 55.4374 1.48116C55.6348 1.38783 55.8393 1.31042 56.0491 1.24967C56.2652 1.18785 56.4858 1.14254 56.7088 1.11413C56.9321 1.0887 57.157 1.07988 57.3817 1.08774C57.6001 1.09749 57.8174 1.12395 58.0318 1.16691C58.4361 1.24931 58.8258 1.39162 59.1881 1.58911C59.8012 1.92239 60.3181 2.40823 60.6886 2.99966C60.9364 3.39255 61.1089 3.82819 61.1971 4.28427C61.2475 4.62251 61.2475 4.80243 61.2259 4.80243Z" fill="#1E1F24"/>
</g>
<g opacity="0.3">
<path d="M57.8787 7.65426L57.9519 8.35474L57.3257 8.42071L57.255 7.73822C56.6313 7.76461 56.0171 7.63267 55.6453 7.39998L55.9092 6.59995C56.2943 6.8133 56.7284 6.92283 57.1686 6.9178L57.0595 5.87309C56.3482 5.77593 55.5482 5.626 55.4546 4.73001C55.385 4.06672 55.8084 3.44781 56.7848 3.23191L56.7128 2.53743L57.3389 2.47266L57.4097 3.15394C57.8599 3.13282 58.3086 3.2183 58.7195 3.40343L58.488 4.20226C58.1759 4.06222 57.8392 3.98557 57.4973 3.97676L57.6076 5.04067C58.3189 5.13063 59.1069 5.28056 59.1981 6.16575C59.2664 6.82065 58.8478 7.43357 57.8787 7.65426ZM56.9659 4.95311L56.8724 4.06432C56.5497 4.17347 56.437 4.36898 56.4585 4.57529C56.4801 4.78159 56.6804 4.89434 56.9659 4.95311ZM58.1989 6.34927C58.1762 6.12977 57.9818 6.03021 57.7036 5.96424L57.7935 6.82785C58.0994 6.72709 58.2193 6.54957 58.1989 6.34927Z" fill="#1E1F24"/>
</g>
<path d="M66.1447 12.3362C66.1488 12.3466 66.1516 12.3575 66.1531 12.3686C66.1531 12.3938 66.1627 12.425 66.1699 12.4633C66.1771 12.5017 66.1843 12.5581 66.1939 12.6169C66.2036 12.6872 66.2177 12.7569 66.2359 12.8256C66.4083 13.5732 66.7873 14.2573 67.3298 14.7999L67.5193 14.9726C67.5517 15.0002 67.5817 15.0314 67.6165 15.059L67.7232 15.1381C67.7952 15.1909 67.866 15.2497 67.9427 15.2988L68.1826 15.444C68.526 15.638 68.8957 15.7814 69.2801 15.8698C70.1122 16.0601 70.9833 15.9798 71.7666 15.6407C72.1285 15.4837 72.4658 15.2752 72.7681 15.0218L72.9768 14.8359C73.044 14.7735 73.0967 14.7027 73.1627 14.6379C73.1927 14.6056 73.2239 14.5732 73.2527 14.5408C73.2815 14.5084 73.3066 14.4712 73.3342 14.4376C73.3858 14.3681 73.4374 14.3009 73.489 14.2337C73.6638 13.9762 73.8098 13.7003 73.9244 13.4109C74.0901 12.9897 74.1845 12.5438 74.2038 12.0915C74.2085 12.0208 74.2085 11.9499 74.2038 11.8792C74.2038 11.8192 74.2038 11.7665 74.2038 11.7233C74.2038 11.6801 74.2038 11.6525 74.2038 11.6273C74.2028 11.6162 74.2028 11.6049 74.2038 11.5938C74.2051 11.6045 74.2051 11.6154 74.2038 11.6261C74.2038 11.6513 74.2038 11.6837 74.211 11.7221C74.2182 11.7605 74.211 11.818 74.2194 11.8792C74.225 11.9503 74.225 12.0217 74.2194 12.0927C74.2095 12.5488 74.1206 12.9996 73.9567 13.4253C73.8448 13.721 73.6991 14.0027 73.5225 14.2649L73.3726 14.4748C73.345 14.5096 73.3198 14.5468 73.2911 14.5804L73.1999 14.6799C73.1387 14.7459 73.0799 14.8167 73.0116 14.8802L72.8017 15.0709C72.4957 15.3291 72.1539 15.5417 71.7869 15.7019C70.9938 16.0466 70.111 16.1281 69.2681 15.9345C68.8778 15.844 68.5028 15.697 68.155 15.4979L67.9151 15.3504C67.8372 15.3 67.7664 15.2401 67.6932 15.1873L67.5865 15.1057C67.5517 15.0781 67.5205 15.0458 67.4869 15.017L67.2926 14.8347C67.0722 14.6093 66.8779 14.3598 66.7133 14.091C66.4746 13.702 66.305 13.2747 66.2119 12.828C66.1948 12.759 66.1828 12.6888 66.1759 12.6181C66.1687 12.5581 66.1627 12.5053 66.1567 12.4621C66.1508 12.419 66.1495 12.3914 66.1459 12.3662C66.1446 12.3563 66.1442 12.3462 66.1447 12.3362Z" fill="#263238"/>
<path d="M67.974 27.1471C67.71 27.6976 67.2886 28.1573 66.7631 28.4682C66.2376 28.779 65.6317 28.927 65.0221 28.8933C64.4125 28.8596 63.8266 28.6457 63.3386 28.2789C62.8506 27.912 62.4824 27.4085 62.2807 26.8323C62.0789 26.256 62.0527 25.6329 62.2054 25.0417C62.358 24.4506 62.6827 23.918 63.1381 23.5115C63.5936 23.1049 64.1595 22.8427 64.7641 22.7579C65.3688 22.6731 65.985 22.7697 66.5347 23.0354C66.8992 23.2108 67.2256 23.4563 67.4952 23.7579C67.7648 24.0595 67.9723 24.4113 68.106 24.7931C68.2397 25.1749 68.2968 25.5793 68.2741 25.9832C68.2515 26.3871 68.1495 26.7826 67.974 27.1471Z" fill="#FD4545"/>
<g opacity="0.3">
<path d="M67.35 26.7623C67.3624 26.6662 67.3849 26.5718 67.4172 26.4804C67.4791 26.23 67.5022 25.9715 67.4856 25.714C67.4726 25.5376 67.4409 25.3631 67.3908 25.1934C67.3318 25.0001 67.2484 24.8151 67.1425 24.6429C67.0853 24.5501 67.0216 24.4615 66.9518 24.3778C66.7242 24.1057 66.4369 23.8898 66.1122 23.7469C66.0014 23.6984 65.8872 23.6583 65.7704 23.627C65.6566 23.5971 65.5407 23.5758 65.4237 23.5634C65.3111 23.5505 65.1976 23.5465 65.0843 23.5514C64.9752 23.5557 64.8665 23.5681 64.7592 23.5886C64.5605 23.6247 64.3673 23.6868 64.1847 23.7733C64.0252 23.8496 63.8744 23.9429 63.7349 24.0516C63.5329 24.2122 63.3569 24.4032 63.2132 24.6177C63.1665 24.7029 63.1114 24.7833 63.0488 24.8576C63.0633 24.7596 63.0989 24.6658 63.1532 24.5829C63.2798 24.3424 63.4507 24.1279 63.6569 23.9508C63.7984 23.8277 63.9543 23.7222 64.1211 23.6365C64.3133 23.538 64.5178 23.4658 64.7293 23.4218C64.9658 23.3729 65.2085 23.3599 65.4489 23.3835C65.5752 23.396 65.7004 23.4185 65.8231 23.4506C65.9493 23.4846 66.0728 23.5279 66.1926 23.5802C66.3119 23.6337 66.427 23.6962 66.5368 23.7673C66.6427 23.8368 66.743 23.9146 66.8367 24C66.928 24.082 67.0122 24.1714 67.0886 24.2675C67.1623 24.3581 67.2289 24.4543 67.2877 24.5553C67.398 24.743 67.4823 24.9447 67.5384 25.155C67.5861 25.336 67.6123 25.5221 67.6163 25.7092C67.6231 25.9791 67.5796 26.248 67.488 26.502C67.4604 26.5974 67.4135 26.686 67.35 26.7623Z" fill="#1E1F24"/>
</g>
<g opacity="0.3">
<path d="M64.8297 27.1896L64.6582 27.5602L64.326 27.4067L64.4939 27.0469C64.2036 26.9004 63.9601 26.6756 63.791 26.398L64.1616 26.0777C64.2903 26.2992 64.4742 26.4835 64.6954 26.6127L64.9533 26.0585C64.6258 25.7982 64.272 25.484 64.4927 25.0102C64.6558 24.6588 65.0504 24.4752 65.6022 24.6588L65.7737 24.2905L66.1047 24.4453L65.9368 24.8051C66.168 24.9283 66.3665 25.1047 66.5162 25.3197L66.1563 25.6507C66.0423 25.4879 65.8972 25.3493 65.7293 25.2429L65.4678 25.8066C65.7953 26.0633 66.1431 26.374 65.926 26.8418C65.7713 27.1896 65.3803 27.3659 64.8297 27.1896ZM65.1788 25.5691L65.3983 25.099C65.204 25.057 65.0888 25.1205 65.0384 25.2297C64.9881 25.3388 65.0552 25.4528 65.1788 25.5667V25.5691ZM65.3791 26.6342C65.4319 26.5143 65.3659 26.41 65.2459 26.2936L65.0336 26.7518C65.2148 26.7902 65.3347 26.7374 65.3791 26.6318V26.6342Z" fill="#1E1F24"/>
</g>
<path d="M63.0803 24.79C63.0803 24.79 63.0443 24.8872 62.9855 25.0635C62.9061 25.3131 62.8688 25.5741 62.8752 25.836C62.8799 26.016 62.9044 26.195 62.9484 26.3697C63.0006 26.5715 63.0775 26.7661 63.1774 26.949C63.2912 27.1468 63.4325 27.3273 63.5972 27.4852C63.9533 27.8268 64.4093 28.0454 64.8986 28.1089C65.1246 28.1383 65.3537 28.135 65.5787 28.0993C65.9622 28.0379 66.3242 27.8817 66.6318 27.6447C66.8397 27.4852 67.02 27.2928 67.1656 27.075C67.2652 26.9191 67.3119 26.8255 67.3179 26.8291C67.3108 26.853 67.3007 26.876 67.2879 26.8975C67.2575 26.9625 67.2235 27.0258 67.186 27.087C67.0462 27.3136 66.868 27.5141 66.6594 27.6795C66.3497 27.929 65.9807 28.0942 65.5883 28.1593C65.3576 28.198 65.1223 28.2025 64.8903 28.1725C64.6412 28.1377 64.3987 28.0661 64.1706 27.9602C63.9453 27.8493 63.7379 27.7054 63.5553 27.5332C63.3869 27.3709 63.2431 27.1851 63.1283 26.9814C63.0238 26.7965 62.9432 26.599 62.8884 26.3937C62.846 26.2148 62.8239 26.0318 62.8224 25.848C62.8195 25.582 62.8637 25.3176 62.9531 25.0671C62.9766 24.9993 63.0046 24.9332 63.0371 24.8692C63.0483 24.8412 63.0628 24.8146 63.0803 24.79Z" fill="#263238"/>
<path d="M17.0502 26.7091C17.1964 27.6954 17.0466 28.7029 16.6198 29.6039C16.193 30.505 15.5084 31.2592 14.6527 31.7709C13.797 32.2827 12.8087 32.529 11.8129 32.4788C10.8172 32.4285 9.85872 32.0839 9.05893 31.4885C8.25914 30.8932 7.654 30.0739 7.32013 29.1344C6.98626 28.1949 6.93868 27.1775 7.18341 26.211C7.42814 25.2444 7.95417 24.3722 8.6949 23.7049C9.43563 23.0375 10.3577 22.6049 11.3445 22.4619C11.998 22.3661 12.664 22.3999 13.3045 22.5615C13.9449 22.7231 14.5472 23.0093 15.0771 23.4037C15.6069 23.7981 16.0539 24.293 16.3924 24.8601C16.731 25.4273 16.9545 26.0556 17.0502 26.7091Z" fill="#FD4545"/>
<g opacity="0.3">
<path d="M15.8462 26.7592C15.8234 26.7592 15.7827 26.5997 15.6795 26.3178C15.5359 25.9214 15.3311 25.5498 15.0726 25.2167C14.8955 24.9902 14.6945 24.7835 14.4729 24.6002C14.2166 24.3918 13.9344 24.2177 13.6332 24.0821C13.4715 24.0078 13.3043 23.9461 13.1331 23.8973C12.9554 23.8433 12.7737 23.8032 12.5897 23.7774C12.3998 23.7516 12.2081 23.7404 12.0164 23.7438C11.819 23.7488 11.6221 23.7681 11.4275 23.8014C11.233 23.8368 11.0413 23.8865 10.8541 23.9501C10.6729 24.0135 10.4965 24.0901 10.3264 24.1792C10.1622 24.2656 10.005 24.3647 9.85619 24.4755C9.7125 24.5807 9.57661 24.6961 9.44958 24.8209C9.00788 25.2551 8.67854 25.7902 8.49002 26.3802C8.36201 26.7819 8.29767 27.2012 8.29931 27.6228C8.29931 27.9227 8.3173 28.0906 8.29931 28.0942C8.28132 28.0978 8.22494 27.9359 8.19016 27.6288C8.14285 27.1907 8.17866 26.7475 8.29571 26.3226C8.37512 26.027 8.48948 25.7419 8.63636 25.4734C8.80724 25.1648 9.01862 24.8804 9.26486 24.6278C9.39811 24.4907 9.54166 24.364 9.69427 24.2488C9.85307 24.1275 10.0211 24.0188 10.1968 23.9237C10.379 23.8252 10.5687 23.7414 10.7642 23.673C11.1674 23.5306 11.5912 23.4552 12.0188 23.4499C12.2258 23.4477 12.4327 23.4614 12.6377 23.4907C12.8357 23.5188 13.031 23.5629 13.2218 23.6227C13.4046 23.6786 13.583 23.748 13.7556 23.8302C14.3534 24.114 14.868 24.5469 15.2501 25.0872C15.5049 25.447 15.6912 25.8508 15.7994 26.2782C15.8618 26.5889 15.863 26.7568 15.8462 26.7592Z" fill="#1E1F24"/>
</g>
<g opacity="0.3">
<path d="M12.8252 29.6335L12.9307 30.2932L12.3418 30.388L12.2387 29.7451C11.6497 29.8026 11.0608 29.7103 10.6962 29.5052L10.9049 28.7339C11.2805 28.918 11.6977 29.0007 12.1151 28.9738L11.958 27.9903C11.2779 27.9363 10.5127 27.8343 10.3771 26.9923C10.2776 26.3674 10.6458 25.7581 11.5598 25.5038L11.4542 24.8489L12.0444 24.7554L12.1463 25.3971C12.5719 25.3536 13.0017 25.4111 13.4009 25.565L13.2222 26.3374C12.9191 26.2208 12.5957 26.1658 12.2711 26.1755L12.4318 27.1771C13.1107 27.225 13.8639 27.3282 13.9971 28.1594C14.0954 28.7711 13.732 29.3732 12.8252 29.6335ZM11.8189 27.1231L11.6845 26.2835C11.3835 26.4034 11.2875 26.5953 11.3187 26.7896C11.3499 26.9839 11.5466 27.0823 11.8189 27.1231ZM13.0603 28.3813C13.0267 28.175 12.8384 28.0898 12.5709 28.0419L12.7005 28.8551C12.9847 28.7483 13.0903 28.5696 13.0603 28.3813Z" fill="#1E1F24"/>
</g>
<path d="M8.27193 27.9924C8.27553 28.0022 8.27834 28.0122 8.28033 28.0224C8.28632 28.0452 8.29352 28.0752 8.30192 28.1112L8.3331 28.2551C8.34598 28.3212 8.3628 28.3865 8.38348 28.4506C8.50265 28.8625 8.68951 29.2516 8.93642 29.6021C9.10672 29.8432 9.30346 30.0645 9.52295 30.2618L9.71127 30.4153C9.74365 30.4405 9.77484 30.4681 9.80842 30.4921L9.91397 30.5617C9.98474 30.6072 10.0543 30.6588 10.1299 30.702L10.3626 30.8219C10.698 30.9877 11.0555 31.1044 11.4241 31.1686C11.8211 31.2314 12.2252 31.2358 12.6235 31.1818C13.0203 31.1176 13.4057 30.9964 13.7678 30.8219C14.1017 30.6539 14.4098 30.439 14.683 30.1838L14.8701 29.9955C14.9313 29.9332 14.9816 29.8636 15.0368 29.8L15.1172 29.7029C15.1436 29.6693 15.1651 29.6345 15.1879 29.6009C15.2347 29.5325 15.2791 29.4654 15.3247 29.3994C15.4764 29.1465 15.6003 28.8778 15.6941 28.5982C15.8291 28.191 15.8951 27.7641 15.8896 27.3352C15.892 27.2679 15.8892 27.2005 15.8812 27.1336C15.8812 27.0773 15.8728 27.0281 15.8704 26.9861C15.868 26.9441 15.8704 26.9201 15.8644 26.895C15.8628 26.8846 15.8628 26.8741 15.8644 26.8638C15.8681 26.8738 15.8701 26.8843 15.8704 26.895C15.8704 26.9189 15.8776 26.9489 15.8824 26.9849C15.8872 27.0209 15.8932 27.0761 15.9004 27.1324C15.9096 27.1996 15.914 27.2674 15.9136 27.3352C15.9292 27.7676 15.8691 28.1995 15.7361 28.6114C15.6448 28.8964 15.5213 29.17 15.3679 29.427L15.2323 29.6309C15.2083 29.6657 15.1867 29.7017 15.1603 29.7352L15.08 29.8336C15.0248 29.8996 14.9732 29.9703 14.9121 30.0339C14.8509 30.0975 14.7921 30.161 14.7226 30.2246C14.4463 30.4858 14.1335 30.7056 13.7942 30.8771C13.0594 31.246 12.2257 31.3692 11.4157 31.2286C11.0404 31.1614 10.6767 31.0402 10.3362 30.8687L10.0963 30.7404C10.0195 30.6972 9.94996 30.6444 9.87799 30.5976L9.77124 30.5269C9.73765 30.5017 9.70647 30.4729 9.67288 30.4477L9.48337 30.2918C9.26275 30.0899 9.06559 29.8638 8.89564 29.6177C8.64941 29.2616 8.46678 28.8655 8.35589 28.447C8.33531 28.3824 8.32007 28.3162 8.31031 28.2491C8.30072 28.1928 8.29232 28.1448 8.28392 28.1028L8.26953 28.0128C8.26975 28.006 8.27055 27.9992 8.27193 27.9924Z" fill="#263238"/>
<path d="M80.3845 42.5663C80.3845 42.5843 62.4756 42.5987 40.389 42.5987C18.3024 42.5987 0.388672 42.5843 0.388672 42.5663C0.388672 42.5484 18.294 42.5352 40.389 42.5352C62.484 42.5352 80.3845 42.5496 80.3845 42.5663Z" fill="#263238"/>
</svg>
